<svg width="1644" height="1530" viewBox="0 0 1644 1530" fill="none" xmlns="http://www.w3.org/2000/svg">
<path d="M1337.32 960.154C1490.08 373.688 894.584 3.36737 478.68 381.076C464.917 393.533 447.439 412.195 436.573 397.22C419.927 371.005 327.821 364.667 285.551 374.421C266.272 378.839 270.979 399.078 282.354 415.381L557.609 808.832C574.365 832.82 594.903 854.083 619.495 870.028C686.295 913.432 761.713 949.507 815.629 939.796C828.073 937.551 831.996 923.137 825.161 912.455L590.695 548.99C583.574 537.96 584.544 523.26 593.355 513.521C840.106 239.582 1182.04 450.806 1194.3 703.878C1196.17 742.836 1204.02 782.394 1227.36 813.501L1337.32 960.154Z" fill="#7DE1E1"/>
<path d="M306.701 570.118C153.915 1156.65 749.354 1526.94 1165.26 1149.23C1179.02 1136.77 1196.5 1118.11 1207.36 1133.09C1224.01 1159.3 1316.12 1165.64 1358.39 1155.89C1377.75 1151.43 1372.99 1131.17 1361.61 1114.86L1086.36 721.413C1069.6 697.425 1049.06 676.161 1024.47 660.217C957.73 616.841 882.251 580.738 828.336 590.449C815.892 592.694 811.908 607.08 818.804 617.79L1053.3 981.194C1060.42 992.223 1059.45 1006.92 1050.64 1016.66C803.886 1290.6 461.95 1079.38 449.665 826.367C447.79 787.409 440.008 747.878 416.63 716.682L306.701 570.118Z" fill="#7DE1E1"/>
</svg>
