<svg width="598" height="412" viewBox="0 0 598 412" fill="none" xmlns="http://www.w3.org/2000/svg">
<g filter="url(#filter0_d_146_102)">
<rect x="43" y="39.8516" width="512" height="325" rx="25" fill="#C0C0C0" fill-opacity="0.22" shape-rendering="crispEdges"/>
</g>
<g filter="url(#filter1_d_146_102)">
<rect x="72" y="117.852" width="333" height="6" rx="3" fill="url(#paint0_linear_146_102)"/>
</g>
<g filter="url(#filter2_d_146_102)">
<rect x="72" y="328.852" width="391" height="6" rx="3" fill="url(#paint1_linear_146_102)"/>
</g>
<g filter="url(#filter3_d_146_102)">
<rect x="72" y="260.852" width="259" height="6" rx="3" fill="url(#paint2_linear_146_102)"/>
</g>
<g filter="url(#filter4_d_146_102)">
<rect x="72" y="190.852" width="195" height="6" rx="3" fill="url(#paint3_linear_146_102)"/>
</g>
<path d="M86.608 153.052H90.496V169.852H86.608V153.052ZM78.976 169.852H75.088V153.052H78.976V169.852ZM86.896 162.964H78.688V159.676H86.896V162.964ZM94.7052 169.852V153.052H110.017V169.852H106.153V155.332L107.041 156.22H97.6812L98.5692 155.332V169.852H94.7052ZM123.062 168.796C120.886 168.796 119.038 168.508 117.518 167.932C116.014 167.356 114.87 166.524 114.086 165.436C113.302 164.332 112.91 162.988 112.91 161.404C112.91 159.82 113.302 158.484 114.086 157.396C114.87 156.292 116.014 155.452 117.518 154.876C119.038 154.3 120.886 154.012 123.062 154.012C123.094 154.012 123.182 154.012 123.326 154.012C123.486 154.012 123.638 154.012 123.782 154.012C123.942 154.012 124.03 154.012 124.046 154.012C126.206 154.012 128.03 154.3 129.518 154.876C131.022 155.452 132.158 156.292 132.926 157.396C133.694 158.5 134.078 159.836 134.078 161.404C134.078 162.956 133.694 164.292 132.926 165.412C132.174 166.516 131.062 167.356 129.59 167.932C128.134 168.508 126.35 168.796 124.238 168.796C124.19 168.796 124.078 168.796 123.902 168.796C123.726 168.796 123.55 168.796 123.374 168.796C123.214 168.796 123.11 168.796 123.062 168.796ZM123.422 165.796C123.47 165.796 123.534 165.796 123.614 165.796C123.694 165.796 123.75 165.796 123.782 165.796C125.254 165.796 126.47 165.636 127.43 165.316C128.406 164.98 129.134 164.492 129.614 163.852C130.094 163.196 130.334 162.372 130.334 161.38C130.334 160.388 130.086 159.572 129.59 158.932C129.094 158.292 128.366 157.82 127.406 157.516C126.462 157.196 125.27 157.036 123.83 157.036C123.798 157.036 123.734 157.036 123.638 157.036C123.558 157.036 123.486 157.036 123.422 157.036C121.902 157.036 120.646 157.188 119.654 157.492C118.662 157.796 117.918 158.276 117.422 158.932C116.926 159.572 116.678 160.396 116.678 161.404C116.678 162.412 116.942 163.244 117.47 163.9C117.998 164.54 118.758 165.02 119.75 165.34C120.758 165.644 121.982 165.796 123.422 165.796ZM121.718 170.596V152.332H125.294V170.596H121.718ZM146.927 152.044L145.343 157.804L144.815 155.644C145.503 155.644 146.063 155.844 146.495 156.244C146.927 156.644 147.143 157.196 147.143 157.9C147.143 158.588 146.919 159.148 146.471 159.58C146.039 159.996 145.495 160.204 144.839 160.204C144.167 160.204 143.607 159.996 143.159 159.58C142.727 159.148 142.511 158.588 142.511 157.9C142.511 157.692 142.527 157.492 142.559 157.3C142.591 157.092 142.655 156.852 142.751 156.58C142.847 156.308 142.983 155.948 143.159 155.5L144.551 152.044H146.927ZM152.591 152.044L151.007 157.804L150.479 155.644C151.167 155.644 151.727 155.844 152.159 156.244C152.591 156.644 152.807 157.196 152.807 157.9C152.807 158.588 152.583 159.148 152.135 159.58C151.703 159.996 151.159 160.204 150.503 160.204C149.831 160.204 149.271 159.996 148.823 159.58C148.391 159.148 148.175 158.588 148.175 157.9C148.175 157.692 148.191 157.492 148.223 157.3C148.255 157.092 148.319 156.852 148.415 156.58C148.511 156.308 148.647 155.948 148.823 155.5L150.215 152.044H152.591ZM166.608 169.852L161.376 161.764L164.52 159.868L171.024 169.852H166.608ZM155.688 169.852V153.052H159.552V169.852H155.688ZM158.424 163.084V159.844H164.28V163.084H158.424ZM164.88 161.884L161.304 161.452L166.752 153.052H170.856L164.88 161.884ZM172.846 169.852V153.052H180.118C181.622 153.052 182.918 153.3 184.006 153.796C185.094 154.276 185.934 154.972 186.526 155.884C187.118 156.796 187.414 157.884 187.414 159.148C187.414 160.396 187.118 161.476 186.526 162.388C185.934 163.3 185.094 164.004 184.006 164.5C182.918 164.98 181.622 165.22 180.118 165.22H175.006L176.734 163.468V169.852H172.846ZM176.734 163.9L175.006 162.052H179.902C181.102 162.052 181.998 161.796 182.59 161.284C183.182 160.772 183.478 160.06 183.478 159.148C183.478 158.22 183.182 157.5 182.59 156.988C181.998 156.476 181.102 156.22 179.902 156.22H175.006L176.734 154.372V163.9ZM190.18 166.684C191.108 166.956 191.884 167.036 192.508 166.924C193.148 166.796 193.716 166.348 194.212 165.58L195.028 164.356L195.388 163.948L200.956 153.052H204.772L197.62 166.348C196.98 167.548 196.22 168.468 195.34 169.108C194.476 169.748 193.524 170.108 192.484 170.188C191.444 170.284 190.364 170.1 189.244 169.636L190.18 166.684ZM195.316 167.188L187.732 153.052H191.884L197.452 164.332L195.316 167.188ZM206.619 169.852V153.052H218.475L218.451 156.22H209.571L210.459 155.332L210.483 169.852H206.619ZM219.838 160.012L221.422 154.252L221.95 156.436C221.262 156.436 220.694 156.236 220.246 155.836C219.814 155.42 219.598 154.86 219.598 154.156C219.598 153.468 219.822 152.916 220.27 152.5C220.718 152.068 221.27 151.852 221.926 151.852C222.598 151.852 223.15 152.068 223.582 152.5C224.014 152.916 224.23 153.468 224.23 154.156C224.23 154.364 224.214 154.572 224.182 154.78C224.166 154.972 224.11 155.204 224.014 155.476C223.934 155.748 223.798 156.108 223.606 156.556L222.214 160.012H219.838ZM225.502 160.012L227.086 154.252L227.614 156.436C226.926 156.436 226.358 156.236 225.91 155.836C225.478 155.42 225.262 154.86 225.262 154.156C225.262 153.468 225.486 152.916 225.934 152.5C226.382 152.068 226.934 151.852 227.59 151.852C228.262 151.852 228.814 152.068 229.246 152.5C229.678 152.916 229.894 153.468 229.894 154.156C229.894 154.364 229.878 154.572 229.846 154.78C229.83 154.972 229.774 155.204 229.678 155.476C229.598 155.748 229.462 156.108 229.27 156.556L227.878 160.012H225.502Z" fill="#C0C0C0"/>
<path d="M78.472 239.852V226.22H73.096V223.052H87.736V226.22H82.36V239.852H78.472ZM89.2827 239.852V226.94H92.8587V230.588L92.3547 229.532C92.7387 228.62 93.3547 227.932 94.2027 227.468C95.0507 226.988 96.0827 226.748 97.2987 226.748V230.204C97.1387 230.188 96.9947 230.18 96.8667 230.18C96.7387 230.164 96.6027 230.156 96.4587 230.156C95.4347 230.156 94.6027 230.452 93.9627 231.044C93.3387 231.62 93.0267 232.524 93.0267 233.756V239.852H89.2827ZM106.601 239.852V237.332L106.361 236.78V232.268C106.361 231.468 106.113 230.844 105.617 230.396C105.137 229.948 104.393 229.724 103.385 229.724C102.697 229.724 102.017 229.836 101.345 230.06C100.689 230.268 100.129 230.556 99.6651 230.924L98.3211 228.308C99.0251 227.812 99.8731 227.428 100.865 227.156C101.857 226.884 102.865 226.748 103.889 226.748C105.857 226.748 107.385 227.212 108.473 228.14C109.561 229.068 110.105 230.516 110.105 232.484V239.852H106.601ZM102.665 240.044C101.657 240.044 100.793 239.876 100.073 239.54C99.3531 239.188 98.8011 238.716 98.4171 238.124C98.0331 237.532 97.8411 236.868 97.8411 236.132C97.8411 235.364 98.0251 234.692 98.3931 234.116C98.7771 233.54 99.3771 233.092 100.193 232.772C101.009 232.436 102.073 232.268 103.385 232.268H106.817V234.452H103.793C102.913 234.452 102.305 234.596 101.969 234.884C101.649 235.172 101.489 235.532 101.489 235.964C101.489 236.444 101.673 236.828 102.041 237.116C102.425 237.388 102.945 237.524 103.601 237.524C104.225 237.524 104.785 237.38 105.281 237.092C105.777 236.788 106.137 236.348 106.361 235.772L106.937 237.5C106.665 238.332 106.169 238.964 105.449 239.396C104.729 239.828 103.801 240.044 102.665 240.044ZM119.827 240.044C118.435 240.044 117.195 239.764 116.107 239.204C115.019 238.628 114.163 237.836 113.539 236.828C112.931 235.82 112.627 234.676 112.627 233.396C112.627 232.1 112.931 230.956 113.539 229.964C114.163 228.956 115.019 228.172 116.107 227.612C117.195 227.036 118.435 226.748 119.827 226.748C121.187 226.748 122.371 227.036 123.379 227.612C124.387 228.172 125.131 228.98 125.611 230.036L122.707 231.596C122.371 230.988 121.947 230.54 121.435 230.252C120.939 229.964 120.395 229.82 119.803 229.82C119.163 229.82 118.587 229.964 118.075 230.252C117.563 230.54 117.155 230.948 116.851 231.476C116.563 232.004 116.419 232.644 116.419 233.396C116.419 234.148 116.563 234.788 116.851 235.316C117.155 235.844 117.563 236.252 118.075 236.54C118.587 236.828 119.163 236.972 119.803 236.972C120.395 236.972 120.939 236.836 121.435 236.564C121.947 236.276 122.371 235.82 122.707 235.196L125.611 236.78C125.131 237.82 124.387 238.628 123.379 239.204C122.371 239.764 121.187 240.044 119.827 240.044ZM134.011 240.044C132.539 240.044 131.243 239.756 130.123 239.18C129.019 238.604 128.163 237.82 127.555 236.828C126.947 235.82 126.643 234.676 126.643 233.396C126.643 232.1 126.939 230.956 127.531 229.964C128.139 228.956 128.963 228.172 130.003 227.612C131.043 227.036 132.219 226.748 133.531 226.748C134.795 226.748 135.931 227.02 136.939 227.564C137.963 228.092 138.771 228.86 139.363 229.868C139.955 230.86 140.251 232.052 140.251 233.444C140.251 233.588 140.243 233.756 140.227 233.948C140.211 234.124 140.195 234.292 140.179 234.452H129.691V232.268H138.211L136.771 232.916C136.771 232.244 136.635 231.66 136.363 231.164C136.091 230.668 135.715 230.284 135.235 230.012C134.755 229.724 134.195 229.58 133.555 229.58C132.915 229.58 132.347 229.724 131.851 230.012C131.371 230.284 130.995 230.676 130.723 231.188C130.451 231.684 130.315 232.276 130.315 232.964V233.54C130.315 234.244 130.467 234.868 130.771 235.412C131.091 235.94 131.531 236.348 132.091 236.636C132.667 236.908 133.339 237.044 134.107 237.044C134.795 237.044 135.395 236.94 135.907 236.732C136.435 236.524 136.915 236.212 137.347 235.796L139.339 237.956C138.747 238.628 138.003 239.148 137.107 239.516C136.211 239.868 135.179 240.044 134.011 240.044ZM149.805 239.852V223.052H153.021L160.173 234.908H158.469L165.501 223.052H168.693L168.741 239.852H165.093L165.069 228.644H165.741L160.125 238.076H158.373L152.637 228.644H153.453V239.852H149.805ZM178.606 240.044C177.23 240.044 176.006 239.756 174.934 239.18C173.878 238.604 173.038 237.82 172.414 236.828C171.806 235.82 171.502 234.676 171.502 233.396C171.502 232.1 171.806 230.956 172.414 229.964C173.038 228.956 173.878 228.172 174.934 227.612C176.006 227.036 177.23 226.748 178.606 226.748C179.966 226.748 181.182 227.036 182.254 227.612C183.326 228.172 184.166 228.948 184.774 229.94C185.382 230.932 185.686 232.084 185.686 233.396C185.686 234.676 185.382 235.82 184.774 236.828C184.166 237.82 183.326 238.604 182.254 239.18C181.182 239.756 179.966 240.044 178.606 240.044ZM178.606 236.972C179.23 236.972 179.79 236.828 180.286 236.54C180.782 236.252 181.174 235.844 181.462 235.316C181.75 234.772 181.894 234.132 181.894 233.396C181.894 232.644 181.75 232.004 181.462 231.476C181.174 230.948 180.782 230.54 180.286 230.252C179.79 229.964 179.23 229.82 178.606 229.82C177.982 229.82 177.422 229.964 176.926 230.252C176.43 230.54 176.03 230.948 175.726 231.476C175.438 232.004 175.294 232.644 175.294 233.396C175.294 234.132 175.438 234.772 175.726 235.316C176.03 235.844 176.43 236.252 176.926 236.54C177.422 236.828 177.982 236.972 178.606 236.972ZM193.733 240.044C192.517 240.044 191.421 239.772 190.445 239.228C189.469 238.668 188.693 237.892 188.117 236.9C187.557 235.908 187.277 234.74 187.277 233.396C187.277 232.036 187.557 230.86 188.117 229.868C188.693 228.876 189.469 228.108 190.445 227.564C191.421 227.02 192.517 226.748 193.733 226.748C194.821 226.748 195.773 226.988 196.589 227.468C197.405 227.948 198.037 228.676 198.485 229.652C198.933 230.628 199.157 231.876 199.157 233.396C199.157 234.9 198.941 236.148 198.509 237.14C198.077 238.116 197.453 238.844 196.637 239.324C195.837 239.804 194.869 240.044 193.733 240.044ZM194.381 236.972C194.989 236.972 195.541 236.828 196.037 236.54C196.533 236.252 196.925 235.844 197.213 235.316C197.517 234.772 197.669 234.132 197.669 233.396C197.669 232.644 197.517 232.004 197.213 231.476C196.925 230.948 196.533 230.54 196.037 230.252C195.541 229.964 194.989 229.82 194.381 229.82C193.757 229.82 193.197 229.964 192.701 230.252C192.205 230.54 191.805 230.948 191.501 231.476C191.213 232.004 191.069 232.644 191.069 233.396C191.069 234.132 191.213 234.772 191.501 235.316C191.805 235.844 192.205 236.252 192.701 236.54C193.197 236.828 193.757 236.972 194.381 236.972ZM197.765 239.852V237.212L197.837 233.372L197.597 229.556V222.044H201.341V239.852H197.765ZM211.214 240.044C209.742 240.044 208.446 239.756 207.326 239.18C206.222 238.604 205.366 237.82 204.758 236.828C204.15 235.82 203.846 234.676 203.846 233.396C203.846 232.1 204.142 230.956 204.734 229.964C205.342 228.956 206.166 228.172 207.206 227.612C208.246 227.036 209.422 226.748 210.734 226.748C211.998 226.748 213.134 227.02 214.142 227.564C215.166 228.092 215.974 228.86 216.566 229.868C217.158 230.86 217.454 232.052 217.454 233.444C217.454 233.588 217.446 233.756 217.43 233.948C217.414 234.124 217.398 234.292 217.382 234.452H206.894V232.268H215.414L213.974 232.916C213.974 232.244 213.838 231.66 213.566 231.164C213.294 230.668 212.918 230.284 212.438 230.012C211.958 229.724 211.398 229.58 210.758 229.58C210.118 229.58 209.55 229.724 209.054 230.012C208.574 230.284 208.198 230.676 207.926 231.188C207.654 231.684 207.518 232.276 207.518 232.964V233.54C207.518 234.244 207.67 234.868 207.974 235.412C208.294 235.94 208.734 236.348 209.294 236.636C209.87 236.908 210.542 237.044 211.31 237.044C211.998 237.044 212.598 236.94 213.11 236.732C213.638 236.524 214.118 236.212 214.55 235.796L216.542 237.956C215.95 238.628 215.206 239.148 214.31 239.516C213.414 239.868 212.382 240.044 211.214 240.044ZM228.64 239.852L235.408 224.54L236.416 226.22H227.368L229.096 224.396V228.956H225.64V223.052H239.104V225.572L232.864 239.852H228.64Z" fill="#C0C0C0"/>
<path d="M78.472 308.852V295.22H73.096V292.052H87.736V295.22H82.36V308.852H78.472ZM89.8279 308.852V292.052H93.7159V308.852H89.8279ZM95.4949 308.852L102.983 292.052H106.823L114.335 308.852H110.255L104.111 294.02H105.647L99.4789 308.852H95.4949ZM99.2389 305.252L100.271 302.3H108.911L109.967 305.252H99.2389ZM122.875 308.852V292.052H130.147C131.651 292.052 132.947 292.3 134.035 292.796C135.123 293.276 135.963 293.972 136.555 294.884C137.147 295.796 137.443 296.884 137.443 298.148C137.443 299.396 137.147 300.476 136.555 301.388C135.963 302.3 135.123 303.004 134.035 303.5C132.947 303.98 131.651 304.22 130.147 304.22H125.035L126.763 302.468V308.852H122.875ZM126.763 302.9L125.035 301.052H129.931C131.131 301.052 132.027 300.796 132.619 300.284C133.211 299.772 133.507 299.06 133.507 298.148C133.507 297.22 133.211 296.5 132.619 295.988C132.027 295.476 131.131 295.22 129.931 295.22H125.035L126.763 293.372V302.9ZM146.075 309.044C144.699 309.044 143.475 308.756 142.403 308.18C141.347 307.604 140.507 306.82 139.883 305.828C139.275 304.82 138.971 303.676 138.971 302.396C138.971 301.1 139.275 299.956 139.883 298.964C140.507 297.956 141.347 297.172 142.403 296.612C143.475 296.036 144.699 295.748 146.075 295.748C147.435 295.748 148.651 296.036 149.723 296.612C150.795 297.172 151.635 297.948 152.243 298.94C152.851 299.932 153.155 301.084 153.155 302.396C153.155 303.676 152.851 304.82 152.243 305.828C151.635 306.82 150.795 307.604 149.723 308.18C148.651 308.756 147.435 309.044 146.075 309.044ZM146.075 305.972C146.699 305.972 147.259 305.828 147.755 305.54C148.251 305.252 148.643 304.844 148.931 304.316C149.219 303.772 149.363 303.132 149.363 302.396C149.363 301.644 149.219 301.004 148.931 300.476C148.643 299.948 148.251 299.54 147.755 299.252C147.259 298.964 146.699 298.82 146.075 298.82C145.451 298.82 144.891 298.964 144.395 299.252C143.899 299.54 143.499 299.948 143.195 300.476C142.907 301.004 142.763 301.644 142.763 302.396C142.763 303.132 142.907 303.772 143.195 304.316C143.499 304.844 143.899 305.252 144.395 305.54C144.891 305.828 145.451 305.972 146.075 305.972ZM155.658 308.852V295.94H159.234V299.588L158.73 298.532C159.114 297.62 159.73 296.932 160.578 296.468C161.426 295.988 162.458 295.748 163.674 295.748V299.204C163.514 299.188 163.37 299.18 163.242 299.18C163.114 299.164 162.978 299.156 162.834 299.156C161.81 299.156 160.978 299.452 160.338 300.044C159.714 300.62 159.402 301.524 159.402 302.756V308.852H155.658ZM171.625 309.044C170.105 309.044 168.921 308.66 168.073 307.892C167.225 307.108 166.801 305.948 166.801 304.412V293.084H170.545V304.364C170.545 304.908 170.689 305.332 170.977 305.636C171.265 305.924 171.657 306.068 172.153 306.068C172.745 306.068 173.249 305.908 173.665 305.588L174.673 308.228C174.289 308.5 173.825 308.708 173.281 308.852C172.753 308.98 172.201 309.044 171.625 309.044ZM164.809 299.108V296.228H173.761V299.108H164.809ZM184.695 308.852V306.332L184.455 305.78V301.268C184.455 300.468 184.207 299.844 183.711 299.396C183.231 298.948 182.487 298.724 181.479 298.724C180.791 298.724 180.111 298.836 179.439 299.06C178.783 299.268 178.223 299.556 177.759 299.924L176.415 297.308C177.119 296.812 177.967 296.428 178.959 296.156C179.951 295.884 180.959 295.748 181.983 295.748C183.951 295.748 185.479 296.212 186.567 297.14C187.655 298.068 188.199 299.516 188.199 301.484V308.852H184.695ZM180.759 309.044C179.751 309.044 178.887 308.876 178.167 308.54C177.447 308.188 176.895 307.716 176.511 307.124C176.127 306.532 175.935 305.868 175.935 305.132C175.935 304.364 176.119 303.692 176.487 303.116C176.871 302.54 177.471 302.092 178.287 301.772C179.103 301.436 180.167 301.268 181.479 301.268H184.911V303.452H181.887C181.007 303.452 180.399 303.596 180.063 303.884C179.743 304.172 179.583 304.532 179.583 304.964C179.583 305.444 179.767 305.828 180.135 306.116C180.519 306.388 181.039 306.524 181.695 306.524C182.319 306.524 182.879 306.38 183.375 306.092C183.871 305.788 184.231 305.348 184.455 304.772L185.031 306.5C184.759 307.332 184.263 307.964 183.543 308.396C182.823 308.828 181.895 309.044 180.759 309.044ZM191.587 308.852V291.044H195.331V308.852H191.587Z" fill="#C0C0C0"/>
<path d="M80.512 96.1396C79.168 96.1396 77.88 95.9636 76.648 95.6116C75.416 95.2436 74.424 94.7716 73.672 94.1956L74.992 91.2676C75.712 91.7796 76.56 92.2036 77.536 92.5396C78.528 92.8596 79.528 93.0196 80.536 93.0196C81.304 93.0196 81.92 92.9476 82.384 92.8036C82.864 92.6436 83.216 92.4276 83.44 92.1556C83.664 91.8836 83.776 91.5716 83.776 91.2196C83.776 90.7716 83.6 90.4196 83.248 90.1636C82.896 89.8916 82.432 89.6756 81.856 89.5156C81.28 89.3396 80.64 89.1796 79.936 89.0356C79.248 88.8756 78.552 88.6836 77.848 88.4596C77.16 88.2356 76.528 87.9476 75.952 87.5956C75.376 87.2436 74.904 86.7796 74.536 86.2036C74.184 85.6276 74.008 84.8916 74.008 83.9956C74.008 83.0356 74.264 82.1636 74.776 81.3796C75.304 80.5796 76.088 79.9476 77.128 79.4836C78.184 79.0036 79.504 78.7636 81.088 78.7636C82.144 78.7636 83.184 78.8916 84.208 79.1476C85.232 79.3876 86.136 79.7556 86.92 80.2516L85.72 83.2036C84.936 82.7556 84.152 82.4276 83.368 82.2196C82.584 81.9956 81.816 81.8836 81.064 81.8836C80.312 81.8836 79.696 81.9716 79.216 82.1476C78.736 82.3236 78.392 82.5556 78.184 82.8436C77.976 83.1156 77.872 83.4356 77.872 83.8036C77.872 84.2356 78.048 84.5876 78.4 84.8596C78.752 85.1156 79.216 85.3236 79.792 85.4836C80.368 85.6436 81 85.8036 81.688 85.9636C82.392 86.1236 83.088 86.3076 83.776 86.5156C84.48 86.7236 85.12 87.0036 85.696 87.3556C86.272 87.7076 86.736 88.1716 87.088 88.7476C87.456 89.3236 87.64 90.0516 87.64 90.9316C87.64 91.8756 87.376 92.7396 86.848 93.5236C86.32 94.3076 85.528 94.9396 84.472 95.4196C83.432 95.8996 82.112 96.1396 80.512 96.1396ZM95.4807 96.0436C94.4087 96.0436 93.4487 95.8356 92.6007 95.4196C91.7687 95.0036 91.1207 94.3716 90.6567 93.5236C90.1927 92.6596 89.9607 91.5636 89.9607 90.2356V82.9396H93.7047V89.6836C93.7047 90.7556 93.9287 91.5476 94.3767 92.0596C94.8407 92.5556 95.4887 92.8036 96.3207 92.8036C96.8967 92.8036 97.4087 92.6836 97.8567 92.4436C98.3047 92.1876 98.6567 91.8036 98.9127 91.2916C99.1687 90.7636 99.2967 90.1076 99.2967 89.3236V82.9396H103.041V95.8516H99.4887V92.2996L100.137 93.3316C99.7047 94.2276 99.0647 94.9076 98.2167 95.3716C97.3847 95.8196 96.4727 96.0436 95.4807 96.0436ZM114.141 96.0436C113.053 96.0436 112.101 95.8036 111.285 95.3236C110.469 94.8436 109.829 94.1156 109.365 93.1396C108.917 92.1476 108.693 90.8996 108.693 89.3956C108.693 87.8756 108.909 86.6276 109.341 85.6516C109.773 84.6756 110.397 83.9476 111.213 83.4676C112.029 82.9876 113.005 82.7476 114.141 82.7476C115.357 82.7476 116.445 83.0276 117.405 83.5876C118.381 84.1316 119.149 84.8996 119.709 85.8916C120.285 86.8836 120.573 88.0516 120.573 89.3956C120.573 90.7556 120.285 91.9316 119.709 92.9236C119.149 93.9156 118.381 94.6836 117.405 95.2276C116.445 95.7716 115.357 96.0436 114.141 96.0436ZM106.509 100.508V82.9396H110.085V85.5796L110.013 89.4196L110.253 93.2356V100.508H106.509ZM113.493 92.9716C114.117 92.9716 114.669 92.8276 115.149 92.5396C115.645 92.2516 116.037 91.8436 116.325 91.3156C116.629 90.7716 116.781 90.1316 116.781 89.3956C116.781 88.6436 116.629 88.0036 116.325 87.4756C116.037 86.9476 115.645 86.5396 115.149 86.2516C114.669 85.9636 114.117 85.8196 113.493 85.8196C112.869 85.8196 112.309 85.9636 111.813 86.2516C111.317 86.5396 110.925 86.9476 110.637 87.4756C110.349 88.0036 110.205 88.6436 110.205 89.3956C110.205 90.1316 110.349 90.7716 110.637 91.3156C110.925 91.8436 111.317 92.2516 111.813 92.5396C112.309 92.8276 112.869 92.9716 113.493 92.9716ZM129.488 96.0436C128.016 96.0436 126.72 95.7556 125.6 95.1796C124.496 94.6036 123.64 93.8196 123.032 92.8276C122.424 91.8196 122.12 90.6756 122.12 89.3956C122.12 88.0996 122.416 86.9556 123.008 85.9636C123.616 84.9556 124.44 84.1716 125.48 83.6116C126.52 83.0356 127.696 82.7476 129.008 82.7476C130.272 82.7476 131.408 83.0196 132.416 83.5636C133.44 84.0916 134.248 84.8596 134.84 85.8676C135.432 86.8596 135.728 88.0516 135.728 89.4436C135.728 89.5876 135.72 89.7556 135.704 89.9476C135.688 90.1236 135.672 90.2916 135.656 90.4516H125.168V88.2676H133.688L132.248 88.9156C132.248 88.2436 132.112 87.6596 131.84 87.1636C131.568 86.6676 131.192 86.2836 130.712 86.0116C130.232 85.7236 129.672 85.5796 129.032 85.5796C128.392 85.5796 127.824 85.7236 127.328 86.0116C126.848 86.2836 126.472 86.6756 126.2 87.1876C125.928 87.6836 125.792 88.2756 125.792 88.9636V89.5396C125.792 90.2436 125.944 90.8676 126.248 91.4116C126.568 91.9396 127.008 92.3476 127.568 92.6356C128.144 92.9076 128.816 93.0436 129.584 93.0436C130.272 93.0436 130.872 92.9396 131.384 92.7316C131.912 92.5236 132.392 92.2116 132.824 91.7956L134.816 93.9556C134.224 94.6276 133.48 95.1476 132.584 95.5156C131.688 95.8676 130.656 96.0436 129.488 96.0436ZM138.22 95.8516V82.9396H141.796V86.5876L141.292 85.5316C141.676 84.6196 142.292 83.9316 143.14 83.4676C143.988 82.9876 145.02 82.7476 146.236 82.7476V86.2036C146.076 86.1876 145.932 86.1796 145.804 86.1796C145.676 86.1636 145.54 86.1556 145.396 86.1556C144.372 86.1556 143.54 86.4516 142.9 87.0436C142.276 87.6196 141.964 88.5236 141.964 89.7556V95.8516H138.22ZM154.153 96.1396C152.809 96.1396 151.521 95.9636 150.289 95.6116C149.057 95.2436 148.065 94.7716 147.313 94.1956L148.633 91.2676C149.353 91.7796 150.201 92.2036 151.177 92.5396C152.169 92.8596 153.169 93.0196 154.177 93.0196C154.945 93.0196 155.561 92.9476 156.025 92.8036C156.505 92.6436 156.857 92.4276 157.081 92.1556C157.305 91.8836 157.417 91.5716 157.417 91.2196C157.417 90.7716 157.241 90.4196 156.889 90.1636C156.537 89.8916 156.073 89.6756 155.497 89.5156C154.921 89.3396 154.281 89.1796 153.577 89.0356C152.889 88.8756 152.193 88.6836 151.489 88.4596C150.801 88.2356 150.169 87.9476 149.593 87.5956C149.017 87.2436 148.545 86.7796 148.177 86.2036C147.825 85.6276 147.649 84.8916 147.649 83.9956C147.649 83.0356 147.905 82.1636 148.417 81.3796C148.945 80.5796 149.729 79.9476 150.769 79.4836C151.825 79.0036 153.145 78.7636 154.729 78.7636C155.785 78.7636 156.825 78.8916 157.849 79.1476C158.873 79.3876 159.777 79.7556 160.561 80.2516L159.361 83.2036C158.577 82.7556 157.793 82.4276 157.009 82.2196C156.225 81.9956 155.457 81.8836 154.705 81.8836C153.953 81.8836 153.337 81.9716 152.857 82.1476C152.377 82.3236 152.033 82.5556 151.825 82.8436C151.617 83.1156 151.513 83.4356 151.513 83.8036C151.513 84.2356 151.689 84.5876 152.041 84.8596C152.393 85.1156 152.857 85.3236 153.433 85.4836C154.009 85.6436 154.641 85.8036 155.329 85.9636C156.033 86.1236 156.729 86.3076 157.417 86.5156C158.121 86.7236 158.761 87.0036 159.337 87.3556C159.913 87.7076 160.377 88.1716 160.729 88.7476C161.097 89.3236 161.281 90.0516 161.281 90.9316C161.281 91.8756 161.017 92.7396 160.489 93.5236C159.961 94.3076 159.169 94.9396 158.113 95.4196C157.073 95.8996 155.753 96.1396 154.153 96.1396ZM171.977 96.1396C170.681 96.1396 169.473 95.9316 168.353 95.5156C167.249 95.0836 166.289 94.4756 165.473 93.6916C164.657 92.9076 164.017 91.9876 163.553 90.9316C163.105 89.8756 162.881 88.7156 162.881 87.4516C162.881 86.1876 163.105 85.0276 163.553 83.9716C164.017 82.9156 164.657 81.9956 165.473 81.2116C166.305 80.4276 167.273 79.8276 168.377 79.4116C169.481 78.9796 170.689 78.7636 172.001 78.7636C173.457 78.7636 174.769 79.0196 175.937 79.5316C177.121 80.0276 178.113 80.7636 178.913 81.7396L176.417 84.0436C175.841 83.3876 175.201 82.8996 174.497 82.5796C173.793 82.2436 173.025 82.0756 172.193 82.0756C171.409 82.0756 170.689 82.2036 170.033 82.4596C169.377 82.7156 168.809 83.0836 168.329 83.5636C167.849 84.0436 167.473 84.6116 167.201 85.2676C166.945 85.9236 166.817 86.6516 166.817 87.4516C166.817 88.2516 166.945 88.9796 167.201 89.6356C167.473 90.2916 167.849 90.8596 168.329 91.3396C168.809 91.8196 169.377 92.1876 170.033 92.4436C170.689 92.6996 171.409 92.8276 172.193 92.8276C173.025 92.8276 173.793 92.6676 174.497 92.3476C175.201 92.0116 175.841 91.5076 176.417 90.8356L178.913 93.1396C178.113 94.1156 177.121 94.8596 175.937 95.3716C174.769 95.8836 173.449 96.1396 171.977 96.1396ZM179.003 95.8516L186.491 79.0516H190.331L197.843 95.8516H193.763L187.619 81.0196H189.155L182.987 95.8516H179.003ZM182.747 92.2516L183.779 89.2996H192.419L193.475 92.2516H182.747ZM199.586 95.8516V79.0516H207.218C209.042 79.0516 210.65 79.4036 212.042 80.1076C213.434 80.7956 214.522 81.7636 215.306 83.0116C216.09 84.2596 216.482 85.7396 216.482 87.4516C216.482 89.1476 216.09 90.6276 215.306 91.8916C214.522 93.1396 213.434 94.1156 212.042 94.8196C210.65 95.5076 209.042 95.8516 207.218 95.8516H199.586ZM203.474 92.6596H207.026C208.146 92.6596 209.114 92.4516 209.93 92.0356C210.762 91.6036 211.402 90.9956 211.85 90.2116C212.314 89.4276 212.546 88.5076 212.546 87.4516C212.546 86.3796 212.314 85.4596 211.85 84.6916C211.402 83.9076 210.762 83.3076 209.93 82.8916C209.114 82.4596 208.146 82.2436 207.026 82.2436H203.474V92.6596ZM216.971 95.8516L224.46 79.0516H228.3L235.812 95.8516H231.732L225.588 81.0196H227.124L220.956 95.8516H216.971ZM220.715 92.2516L221.748 89.2996H230.388L231.444 92.2516H220.715Z" fill="#C0C0C0"/>
<defs>
<filter id="filter0_d_146_102" x="0" y="0.851562" width="598" height="411" filterUnits="userSpaceOnUse" color-interpolation-filters="sRGB">
<feFlood flood-opacity="0" result="BackgroundImageFix"/>
<feColorMatrix in="SourceAlpha" type="matrix" values="0 0 0 0 0 0 0 0 0 0 0 0 0 0 0 0 0 0 127 0" result="hardAlpha"/>
<feMorphology radius="13" operator="dilate" in="SourceAlpha" result="effect1_dropShadow_146_102"/>
<feOffset dy="4"/>
<feGaussianBlur stdDeviation="15"/>
<feComposite in2="hardAlpha" operator="out"/>
<feColorMatrix type="matrix" values="0 0 0 0 0 0 0 0 0 0 0 0 0 0 0 0 0 0 0.25 0"/>
<feBlend mode="normal" in2="BackgroundImageFix" result="effect1_dropShadow_146_102"/>
<feBlend mode="normal" in="SourceGraphic" in2="effect1_dropShadow_146_102" result="shape"/>
</filter>
<filter id="filter1_d_146_102" x="29" y="78.8516" width="419" height="92" filterUnits="userSpaceOnUse" color-interpolation-filters="sRGB">
<feFlood flood-opacity="0" result="BackgroundImageFix"/>
<feColorMatrix in="SourceAlpha" type="matrix" values="0 0 0 0 0 0 0 0 0 0 0 0 0 0 0 0 0 0 127 0" result="hardAlpha"/>
<feMorphology radius="13" operator="dilate" in="SourceAlpha" result="effect1_dropShadow_146_102"/>
<feOffset dy="4"/>
<feGaussianBlur stdDeviation="15"/>
<feComposite in2="hardAlpha" operator="out"/>
<feColorMatrix type="matrix" values="0 0 0 0 0 0 0 0 0 0 0 0 0 0 0 0 0 0 0.25 0"/>
<feBlend mode="normal" in2="BackgroundImageFix" result="effect1_dropShadow_146_102"/>
<feBlend mode="normal" in="SourceGraphic" in2="effect1_dropShadow_146_102" result="shape"/>
</filter>
<filter id="filter2_d_146_102" x="29" y="289.852" width="477" height="92" filterUnits="userSpaceOnUse" color-interpolation-filters="sRGB">
<feFlood flood-opacity="0" result="BackgroundImageFix"/>
<feColorMatrix in="SourceAlpha" type="matrix" values="0 0 0 0 0 0 0 0 0 0 0 0 0 0 0 0 0 0 127 0" result="hardAlpha"/>
<feMorphology radius="13" operator="dilate" in="SourceAlpha" result="effect1_dropShadow_146_102"/>
<feOffset dy="4"/>
<feGaussianBlur stdDeviation="15"/>
<feComposite in2="hardAlpha" operator="out"/>
<feColorMatrix type="matrix" values="0 0 0 0 0 0 0 0 0 0 0 0 0 0 0 0 0 0 0.25 0"/>
<feBlend mode="normal" in2="BackgroundImageFix" result="effect1_dropShadow_146_102"/>
<feBlend mode="normal" in="SourceGraphic" in2="effect1_dropShadow_146_102" result="shape"/>
</filter>
<filter id="filter3_d_146_102" x="29" y="221.852" width="345" height="92" filterUnits="userSpaceOnUse" color-interpolation-filters="sRGB">
<feFlood flood-opacity="0" result="BackgroundImageFix"/>
<feColorMatrix in="SourceAlpha" type="matrix" values="0 0 0 0 0 0 0 0 0 0 0 0 0 0 0 0 0 0 127 0" result="hardAlpha"/>
<feMorphology radius="13" operator="dilate" in="SourceAlpha" result="effect1_dropShadow_146_102"/>
<feOffset dy="4"/>
<feGaussianBlur stdDeviation="15"/>
<feComposite in2="hardAlpha" operator="out"/>
<feColorMatrix type="matrix" values="0 0 0 0 0 0 0 0 0 0 0 0 0 0 0 0 0 0 0.25 0"/>
<feBlend mode="normal" in2="BackgroundImageFix" result="effect1_dropShadow_146_102"/>
<feBlend mode="normal" in="SourceGraphic" in2="effect1_dropShadow_146_102" result="shape"/>
</filter>
<filter id="filter4_d_146_102" x="29" y="151.852" width="281" height="92" filterUnits="userSpaceOnUse" color-interpolation-filters="sRGB">
<feFlood flood-opacity="0" result="BackgroundImageFix"/>
<feColorMatrix in="SourceAlpha" type="matrix" values="0 0 0 0 0 0 0 0 0 0 0 0 0 0 0 0 0 0 127 0" result="hardAlpha"/>
<feMorphology radius="13" operator="dilate" in="SourceAlpha" result="effect1_dropShadow_146_102"/>
<feOffset dy="4"/>
<feGaussianBlur stdDeviation="15"/>
<feComposite in2="hardAlpha" operator="out"/>
<feColorMatrix type="matrix" values="0 0 0 0 0 0 0 0 0 0 0 0 0 0 0 0 0 0 0.25 0"/>
<feBlend mode="normal" in2="BackgroundImageFix" result="effect1_dropShadow_146_102"/>
<feBlend mode="normal" in="SourceGraphic" in2="effect1_dropShadow_146_102" result="shape"/>
</filter>
<linearGradient id="paint0_linear_146_102" x1="72" y1="120.852" x2="405" y2="120.852" gradientUnits="userSpaceOnUse">
<stop stop-color="white"/>
<stop offset="1" stop-color="#7DE1E1"/>
</linearGradient>
<linearGradient id="paint1_linear_146_102" x1="72" y1="331.852" x2="463" y2="331.852" gradientUnits="userSpaceOnUse">
<stop offset="0.68" stop-color="white"/>
<stop offset="1" stop-color="#E6585F"/>
</linearGradient>
<linearGradient id="paint2_linear_146_102" x1="72" y1="263.852" x2="331" y2="263.852" gradientUnits="userSpaceOnUse">
<stop stop-color="white"/>
<stop offset="1" stop-color="#7DE1E1"/>
</linearGradient>
<linearGradient id="paint3_linear_146_102" x1="72" y1="193.852" x2="267" y2="193.852" gradientUnits="userSpaceOnUse">
<stop offset="0.57" stop-color="white"/>
<stop offset="1" stop-color="#E6585F"/>
</linearGradient>
</defs>
</svg>
