<svg width="159" height="161" viewBox="0 0 159 161" fill="none" xmlns="http://www.w3.org/2000/svg">
<g clip-path="url(#clip0_361_6)" filter="url(#filter0_f_361_6)">
<mask id="mask0_361_6" style="mask-type:luminance" maskUnits="userSpaceOnUse" x="0" y="0" width="161" height="161">
<path d="M161 0H0V161H161V0Z" fill="white"/>
</mask>
<g mask="url(#mask0_361_6)">
<path d="M80.9696 134.167C88.3236 128.361 95.3388 122.14 101.983 115.534C111.615 106.359 120.131 96.08 127.358 84.9107C134.066 74.1102 140.472 60.0898 136.062 47.2769C132.49 36.6777 122.578 27.6718 111.191 26.5817C96.8012 25.1562 86.3865 37.3318 80.5 48.9875C75.1165 38.3213 66.2112 27.3196 53.348 26.5146C41.9271 25.8102 31.2943 33.8435 26.3805 43.8221C20.2256 56.3499 25.2401 70.4375 31.7136 81.6907C38.422 93.4303 47.344 103.744 56.7693 113.287C64.1987 120.889 72.1263 127.986 80.5 134.535L80.9696 134.167ZM53.6666 77.1457L58.6979 62.052L61.6831 53.0796C62.4546 50.7485 63.6453 47.6291 66.8653 48.9708C68.8107 49.7925 68.9281 51.805 69.2635 53.566L70.6555 60.9954L74.6805 82.4621L77.347 96.7173L87.0742 70.9909L89.2208 65.3223C89.8413 63.6453 90.4786 61.9682 92.575 61.7837C95.2416 61.5154 96.0297 63.7962 96.6167 65.8087L98.6795 72.886L102.772 86.9566L106.813 82.5124C108.106 80.8203 109.56 79.2588 111.157 77.8501C112.834 76.6761 115.937 77.2128 117.865 77.2128H124.104C122.863 79.4433 121.488 81.6906 119.995 83.9211H114.545C110.973 87.8623 107.551 92.055 103.761 95.7949C102.572 97.2154 100.457 97.4032 99.0368 96.2142C98.7567 95.9811 98.5169 95.7027 98.3274 95.3924C97.9634 94.6713 97.6985 93.9032 97.5391 93.1116L94.7384 83.5354L92.4576 75.6867C88.181 86.9735 84.0722 98.277 79.6614 109.513C79.4149 110.429 78.8799 111.241 78.1353 111.828C76.6091 112.876 74.5212 112.489 73.4713 110.962C73.203 110.572 73.0219 110.131 72.9363 109.664C72.5506 108.122 72.3494 106.512 72.0475 104.969L67.8044 82.328L64.6348 65.4062L59.9054 79.611C59.1842 81.7241 58.614 83.787 55.8972 83.9211C53.4319 84.0385 50.9498 83.9211 48.5012 83.9211H40.9543C39.4785 81.6906 38.0865 79.4433 36.8455 77.2128L53.6666 77.1457Z" fill="#E6585F"/>
</g>
</g>
<g clip-path="url(#clip1_361_6)">
<mask id="mask1_361_6" style="mask-type:luminance" maskUnits="userSpaceOnUse" x="6" y="6" width="149" height="149">
<path d="M155 6H6V155H155V6Z" fill="white"/>
</mask>
<g mask="url(#mask1_361_6)">
<path d="M80.9346 130.167C87.7404 124.793 94.2328 119.037 100.382 112.923C109.296 104.432 117.177 94.9189 123.865 84.582C130.074 74.5866 136.002 61.6112 131.921 49.7532C128.615 39.9441 119.442 31.6094 108.903 30.6005C95.5862 29.2813 85.9478 40.5494 80.5 51.3363C75.5178 41.4651 67.2762 31.2834 55.3717 30.5384C44.8021 29.8866 34.9619 37.3211 30.4142 46.556C24.7181 58.15 29.3588 71.1875 35.3499 81.602C41.5582 92.4666 49.8153 102.012 58.538 110.843C65.4137 117.879 72.7504 124.447 80.5 130.508L80.9346 130.167ZM55.6666 77.3958L60.3229 63.4271L63.0856 55.1234C63.7996 52.966 64.9015 50.0792 67.8815 51.3209C69.682 52.0814 69.7906 53.9439 70.101 55.5736L71.3893 62.4493L75.1143 82.3159L77.5821 95.5086L86.5842 71.6997L88.5708 66.4537C89.1451 64.9016 89.7349 63.3495 91.675 63.1788C94.1428 62.9305 94.8722 65.0412 95.4155 66.9037L97.3246 73.4536L101.112 86.4755L104.852 82.3625C106.049 80.7965 107.394 79.3514 108.872 78.0477C110.424 76.9612 113.295 77.4579 115.08 77.4579H120.854C119.706 79.5222 118.433 81.602 117.052 83.6662H112.007C108.701 87.3136 105.535 91.1939 102.027 94.655C100.927 95.9696 98.9698 96.1435 97.6552 95.043C97.396 94.8273 97.174 94.5697 96.9986 94.2825C96.6618 93.6151 96.4166 92.9043 96.2691 92.1717L93.6772 83.3093L91.5663 76.0455C87.6085 86.4911 83.8059 96.9521 79.7239 107.351C79.4958 108.198 79.0007 108.95 78.3115 109.493C76.8991 110.463 74.9668 110.104 73.9952 108.692C73.7469 108.33 73.5793 107.922 73.5001 107.491C73.1431 106.063 72.9569 104.573 72.6775 103.145L68.7507 82.1918L65.8173 66.5313L61.4404 79.6774C60.773 81.633 60.2453 83.5421 57.7309 83.6662C55.4494 83.7749 53.1523 83.6662 50.8862 83.6662H43.9019C42.536 81.602 41.2478 79.5222 40.0993 77.4579L55.6666 77.3958Z" fill="#E6585F"/>
</g>
</g>
<defs>
<filter id="filter0_f_361_6" x="-10" y="-10" width="181" height="181" filterUnits="userSpaceOnUse" color-interpolation-filters="sRGB">
<feFlood flood-opacity="0" result="BackgroundImageFix"/>
<feBlend mode="normal" in="SourceGraphic" in2="BackgroundImageFix" result="shape"/>
<feGaussianBlur stdDeviation="5" result="effect1_foregroundBlur_361_6"/>
</filter>
<clipPath id="clip0_361_6">
<rect width="161" height="161" fill="white"/>
</clipPath>
<clipPath id="clip1_361_6">
<rect width="149" height="149" fill="white" transform="translate(6 6)"/>
</clipPath>
</defs>
</svg>
