<svg width="161" height="73" viewBox="0 0 161 73" fill="none" xmlns="http://www.w3.org/2000/svg">
<path d="M3.024 64V47.2H4.056L11.856 60.664H11.304L19.08 47.2H20.088L20.112 64H18.912L18.888 49.048H19.224L11.856 61.768H11.256L3.864 49.048H4.224V64H3.024ZM53.7808 61.84L54.2848 60.976C55.0368 61.664 55.8848 62.176 56.8288 62.512C57.7728 62.848 58.7248 63.024 59.6848 63.04C60.6448 63.04 61.5248 62.896 62.3248 62.608C63.1408 62.304 63.7968 61.864 64.2928 61.288C64.7888 60.696 65.0368 59.984 65.0368 59.152C65.0368 58.064 64.6208 57.232 63.7888 56.656C62.9568 56.08 61.7888 55.792 60.2848 55.792H56.8288V54.736H60.2368C61.5168 54.736 62.5168 54.464 63.2368 53.92C63.9568 53.36 64.3168 52.592 64.3168 51.616C64.3168 50.912 64.1168 50.312 63.7168 49.816C63.3328 49.32 62.8048 48.936 62.1328 48.664C61.4768 48.376 60.7328 48.216 59.9008 48.184C59.0688 48.152 58.2048 48.256 57.3088 48.496C56.4288 48.736 55.5808 49.12 54.7648 49.648L54.3088 48.616C55.2848 48.024 56.2928 47.608 57.3328 47.368C58.3728 47.112 59.3808 47.024 60.3568 47.104C61.3488 47.184 62.2288 47.408 62.9968 47.776C63.7808 48.144 64.4048 48.64 64.8688 49.264C65.3328 49.888 65.5648 50.624 65.5648 51.472C65.5648 52.288 65.3648 53 64.9648 53.608C64.5648 54.2 63.9968 54.664 63.2608 55C62.5248 55.32 61.6608 55.48 60.6688 55.48L60.7648 55.024C61.9008 55.024 62.8768 55.2 63.6928 55.552C64.5248 55.904 65.1648 56.4 65.6128 57.04C66.0608 57.68 66.2848 58.432 66.2848 59.296C66.2848 60.128 66.0768 60.864 65.6608 61.504C65.2608 62.128 64.7088 62.648 64.0048 63.064C63.3168 63.464 62.5328 63.76 61.6528 63.952C60.7888 64.128 59.8928 64.168 58.9648 64.072C58.0368 63.992 57.1248 63.768 56.2288 63.4C55.3328 63.032 54.5168 62.512 53.7808 61.84ZM103.847 64V47.92L104.207 48.304H97.7991V47.2H111.119V48.304H104.711L105.071 47.92V64H103.847ZM140.736 64L148.464 47.2H149.688L157.416 64H156.096L148.8 47.968H149.328L142.056 64H140.736ZM143.568 59.272L143.976 58.24H154.032L154.44 59.272H143.568Z" fill="#F5F5F5"/>
<path d="M7.416 23.192C6.136 23.192 4.912 23 3.744 22.616C2.576 22.216 1.656 21.704 0.984 21.08L1.872 19.208C2.512 19.768 3.328 20.232 4.32 20.6C5.312 20.968 6.344 21.152 7.416 21.152C8.392 21.152 9.184 21.04 9.792 20.816C10.4 20.592 10.848 20.288 11.136 19.904C11.424 19.504 11.568 19.056 11.568 18.56C11.568 17.984 11.376 17.52 10.992 17.168C10.624 16.816 10.136 16.536 9.528 16.328C8.936 16.104 8.28 15.912 7.56 15.752C6.84 15.592 6.112 15.408 5.376 15.2C4.656 14.976 3.992 14.696 3.384 14.36C2.792 14.024 2.312 13.576 1.944 13.016C1.576 12.44 1.392 11.704 1.392 10.808C1.392 9.944 1.616 9.152 2.064 8.432C2.528 7.696 3.232 7.112 4.176 6.68C5.136 6.232 6.352 6.008 7.824 6.008C8.8 6.008 9.768 6.136 10.728 6.392C11.688 6.648 12.52 7.016 13.224 7.496L12.432 9.416C11.712 8.936 10.952 8.592 10.152 8.384C9.352 8.16 8.576 8.048 7.824 8.048C6.88 8.048 6.104 8.168 5.496 8.408C4.888 8.648 4.44 8.968 4.152 9.368C3.88 9.768 3.744 10.216 3.744 10.712C3.744 11.304 3.928 11.776 4.296 12.128C4.68 12.48 5.168 12.76 5.76 12.968C6.368 13.176 7.032 13.368 7.752 13.544C8.472 13.704 9.192 13.888 9.912 14.096C10.648 14.304 11.312 14.576 11.904 14.912C12.512 15.248 13 15.696 13.368 16.256C13.736 16.816 13.92 17.536 13.92 18.416C13.92 19.264 13.688 20.056 13.224 20.792C12.76 21.512 12.04 22.096 11.064 22.544C10.104 22.976 8.888 23.192 7.416 23.192Z" fill="#E6585F"/>
<path d="M22.4422 23.144C21.3542 23.144 20.3942 22.944 19.5622 22.544C18.7462 22.144 18.1062 21.536 17.6422 20.72C17.1942 19.888 16.9702 18.848 16.9702 17.6V10.28H19.2742V17.336C19.2742 18.584 19.5702 19.52 20.1622 20.144C20.7702 20.768 21.6182 21.08 22.7062 21.08C23.5062 21.08 24.2022 20.92 24.7942 20.6C25.3862 20.264 25.8422 19.784 26.1622 19.16C26.4822 18.52 26.6422 17.752 26.6422 16.856V10.28H28.9462V23H26.7622V19.568L27.1222 20.48C26.7062 21.328 26.0822 21.984 25.2502 22.448C24.4182 22.912 23.4822 23.144 22.4422 23.144ZM40.0764 23.144C39.0204 23.144 38.0524 22.904 37.1724 22.424C36.3084 21.928 35.6124 21.2 35.0844 20.24C34.5724 19.28 34.3164 18.08 34.3164 16.64C34.3164 15.2 34.5644 14 35.0604 13.04C35.5724 12.08 36.2604 11.36 37.1244 10.88C38.0044 10.4 38.9884 10.16 40.0764 10.16C41.3244 10.16 42.4284 10.432 43.3884 10.976C44.3484 11.52 45.1084 12.28 45.6684 13.256C46.2284 14.216 46.5084 15.344 46.5084 16.64C46.5084 17.936 46.2284 19.072 45.6684 20.048C45.1084 21.024 44.3484 21.784 43.3884 22.328C42.4284 22.872 41.3244 23.144 40.0764 23.144ZM33.3324 27.656V10.28H35.5404V13.712L35.3964 16.664L35.6364 19.616V27.656H33.3324ZM39.8844 21.128C40.7004 21.128 41.4284 20.944 42.0684 20.576C42.7244 20.208 43.2364 19.688 43.6044 19.016C43.9884 18.328 44.1804 17.536 44.1804 16.64C44.1804 15.728 43.9884 14.944 43.6044 14.288C43.2364 13.616 42.7244 13.096 42.0684 12.728C41.4284 12.36 40.7004 12.176 39.8844 12.176C39.0844 12.176 38.3564 12.36 37.7004 12.728C37.0604 13.096 36.5484 13.616 36.1644 14.288C35.7964 14.944 35.6124 15.728 35.6124 16.64C35.6124 17.536 35.7964 18.328 36.1644 19.016C36.5484 19.688 37.0604 20.208 37.7004 20.576C38.3564 20.944 39.0844 21.128 39.8844 21.128ZM55.3558 23.144C53.9958 23.144 52.7958 22.864 51.7558 22.304C50.7318 21.744 49.9318 20.976 49.3558 20C48.7958 19.024 48.5158 17.904 48.5158 16.64C48.5158 15.376 48.7878 14.256 49.3318 13.28C49.8918 12.304 50.6518 11.544 51.6118 11C52.5878 10.44 53.6838 10.16 54.8998 10.16C56.1318 10.16 57.2198 10.432 58.1638 10.976C59.1078 11.52 59.8438 12.288 60.3718 13.28C60.9158 14.256 61.1878 15.4 61.1878 16.712C61.1878 16.808 61.1798 16.92 61.1638 17.048C61.1638 17.176 61.1558 17.296 61.1398 17.408H50.3158V15.752H59.9398L59.0038 16.328C59.0198 15.512 58.8518 14.784 58.4998 14.144C58.1478 13.504 57.6598 13.008 57.0358 12.656C56.4278 12.288 55.7158 12.104 54.8998 12.104C54.0998 12.104 53.3878 12.288 52.7638 12.656C52.1398 13.008 51.6518 13.512 51.2998 14.168C50.9478 14.808 50.7718 15.544 50.7718 16.376V16.76C50.7718 17.608 50.9638 18.368 51.3478 19.04C51.7478 19.696 52.2998 20.208 53.0038 20.576C53.7078 20.944 54.5158 21.128 55.4278 21.128C56.1798 21.128 56.8598 21 57.4678 20.744C58.0918 20.488 58.6358 20.104 59.0998 19.592L60.3718 21.08C59.7958 21.752 59.0758 22.264 58.2118 22.616C57.3638 22.968 56.4118 23.144 55.3558 23.144ZM64.3871 23V10.28H66.5951V13.736L66.3791 12.872C66.7311 11.992 67.3231 11.32 68.1551 10.856C68.9871 10.392 70.0111 10.16 71.2271 10.16V12.392C71.1311 12.376 71.0351 12.368 70.9391 12.368C70.8591 12.368 70.7791 12.368 70.6991 12.368C69.4671 12.368 68.4911 12.736 67.7711 13.472C67.0511 14.208 66.6911 15.272 66.6911 16.664V23H64.3871ZM96.6101 23.192C95.3301 23.192 94.1461 22.984 93.0581 22.568C91.9861 22.136 91.0501 21.536 90.2501 20.768C89.4661 19.984 88.8501 19.072 88.4021 18.032C87.9541 16.992 87.7301 15.848 87.7301 14.6C87.7301 13.352 87.9541 12.208 88.4021 11.168C88.8501 10.128 89.4741 9.224 90.2741 8.456C91.0741 7.672 92.0101 7.072 93.0821 6.656C94.1701 6.224 95.3541 6.008 96.6341 6.008C97.9301 6.008 99.1221 6.232 100.21 6.68C101.314 7.112 102.25 7.76 103.018 8.624L101.458 10.136C100.818 9.464 100.098 8.968 99.2981 8.648C98.4981 8.312 97.6421 8.144 96.7301 8.144C95.7861 8.144 94.9061 8.304 94.0901 8.624C93.2901 8.944 92.5941 9.392 92.0021 9.968C91.4101 10.544 90.9461 11.232 90.6101 12.032C90.2901 12.816 90.1301 13.672 90.1301 14.6C90.1301 15.528 90.2901 16.392 90.6101 17.192C90.9461 17.976 91.4101 18.656 92.0021 19.232C92.5941 19.808 93.2901 20.256 94.0901 20.576C94.9061 20.896 95.7861 21.056 96.7301 21.056C97.6421 21.056 98.4981 20.896 99.2981 20.576C100.098 20.24 100.818 19.728 101.458 19.04L103.018 20.552C102.25 21.416 101.314 22.072 100.21 22.52C99.1221 22.968 97.9221 23.192 96.6101 23.192ZM103.499 23L111.107 6.2H113.483L121.115 23H118.595L111.803 7.544H112.763L105.971 23H103.499ZM106.739 18.8L107.387 16.88H116.843L117.539 18.8H106.739ZM123.622 23V6.2H130.702C132.494 6.2 134.07 6.552 135.43 7.256C136.806 7.96 137.87 8.944 138.622 10.208C139.39 11.472 139.774 12.936 139.774 14.6C139.774 16.264 139.39 17.728 138.622 18.992C137.87 20.256 136.806 21.24 135.43 21.944C134.07 22.648 132.494 23 130.702 23H123.622ZM126.022 20.912H130.558C131.95 20.912 133.15 20.648 134.158 20.12C135.182 19.592 135.974 18.856 136.534 17.912C137.094 16.952 137.374 15.848 137.374 14.6C137.374 13.336 137.094 12.232 136.534 11.288C135.974 10.344 135.182 9.608 134.158 9.08C133.15 8.552 131.95 8.288 130.558 8.288H126.022V20.912ZM140.671 23L148.279 6.2H150.655L158.287 23H155.767L148.975 7.544H149.935L143.143 23H140.671ZM143.911 18.8L144.559 16.88H154.015L154.711 18.8H143.911Z" fill="white"/>
<path d="M79.0879 23.192C77.8079 23.192 76.5839 23 75.4159 22.616C74.2479 22.216 73.3279 21.704 72.6559 21.08L73.5439 19.208C74.1839 19.768 74.9999 20.232 75.9919 20.6C76.9839 20.968 78.0159 21.152 79.0879 21.152C80.0639 21.152 80.8559 21.04 81.4639 20.816C82.0719 20.592 82.5199 20.288 82.8079 19.904C83.0959 19.504 83.2399 19.056 83.2399 18.56C83.2399 17.984 83.0479 17.52 82.6639 17.168C82.2959 16.816 81.8079 16.536 81.1999 16.328C80.6079 16.104 79.9519 15.912 79.2319 15.752C78.5119 15.592 77.7839 15.408 77.0479 15.2C76.3279 14.976 75.6639 14.696 75.0559 14.36C74.4639 14.024 73.9839 13.576 73.6159 13.016C73.2479 12.44 73.0639 11.704 73.0639 10.808C73.0639 9.944 73.2879 9.152 73.7359 8.432C74.1999 7.696 74.9039 7.112 75.8479 6.68C76.8079 6.232 78.0239 6.008 79.4959 6.008C80.4719 6.008 81.4399 6.136 82.3999 6.392C83.3599 6.648 84.1919 7.016 84.8959 7.496L84.1039 9.416C83.3839 8.936 82.6239 8.592 81.8239 8.384C81.0239 8.16 80.2479 8.048 79.4959 8.048C78.5519 8.048 77.7759 8.168 77.1679 8.408C76.5599 8.648 76.1119 8.968 75.8239 9.368C75.5519 9.768 75.4159 10.216 75.4159 10.712C75.4159 11.304 75.5999 11.776 75.9679 12.128C76.3519 12.48 76.8399 12.76 77.4319 12.968C78.0399 13.176 78.7039 13.368 79.4239 13.544C80.1439 13.704 80.8639 13.888 81.5839 14.096C82.3199 14.304 82.9839 14.576 83.5759 14.912C84.1839 15.248 84.6719 15.696 85.0399 16.256C85.4079 16.816 85.5919 17.536 85.5919 18.416C85.5919 19.264 85.3599 20.056 84.8959 20.792C84.4319 21.512 83.7119 22.096 82.7359 22.544C81.7759 22.976 80.5599 23.192 79.0879 23.192Z" fill="#7DE1E1"/>
<line x1="1" y1="35.5" x2="159" y2="35.5" stroke="#424242"/>
</svg>
