<svg width="415" height="421" viewBox="0 0 415 421" fill="none" xmlns="http://www.w3.org/2000/svg">
<g filter="url(#filter0_f_119_78)">
<path fill-rule="evenodd" clip-rule="evenodd" d="M367.534 95.2925L228.704 16.4558C215.541 8.97827 199.459 8.97827 186.296 16.4558L47.4656 95.2925C34.1727 102.835 25.9375 116.952 25.9375 132.165L25.9375 289.128C25.9375 304.406 34.1727 318.458 47.4656 326.065L186.296 404.901C199.459 412.379 215.541 412.379 228.704 404.901L367.534 326.065C380.827 318.523 389.063 304.406 389.063 289.128V132.165C389.063 116.887 380.827 102.835 367.534 95.2925ZM53.918 314.881C44.6294 309.558 38.9063 299.756 38.9063 289.128L38.9063 132.165C38.9063 121.574 44.6502 111.734 53.894 106.49L192.729 27.6504C201.905 22.4378 213.093 22.4368 222.269 27.6494L361.102 106.487C370.355 111.737 376.094 121.521 376.094 132.165V289.128C376.094 299.794 370.34 309.628 361.106 314.868L222.271 393.706C213.095 398.919 201.907 398.92 192.731 393.708L53.9353 314.891L53.918 314.881Z" fill="#7DE1E1"/>
<path fill-rule="evenodd" clip-rule="evenodd" d="M212.451 75.3096C212.451 90.6256 206.93 108.944 193.278 107.54C166.236 104.759 156.332 107.54 146.429 113.986C146.429 95.7871 172.57 92.9114 184.065 91.6467C184.785 91.5674 185.448 91.4946 186.043 91.425C195.669 90.2891 209.15 88.2019 212.451 75.3096ZM146.429 130.102C151.686 108.181 170.396 113.608 178.526 115.966C178.848 116.06 179.153 116.148 179.44 116.23C189.355 119.051 193.719 116.811 197.838 114.698C198.308 114.456 198.775 114.217 199.247 113.986C199.247 120.433 185.425 127.778 179.44 126.879C172.152 125.782 156.332 123.467 146.429 133.325V130.102ZM298.281 307.371V210.679L265.859 230.017V210.679L233.438 230.017V210.679L201.016 230.017V210.679L175.078 230.017L166.236 165.556H133.225L126.622 230.017H175.078V262.248H120.02V268.694H175.078V275.14H120.02L116.719 307.371H298.281ZM188.047 281.586H201.016V255.802H188.047V281.586ZM220.469 281.586H207.5V255.802H220.469V281.586ZM226.953 281.586H239.922V255.802H226.953V281.586ZM259.375 281.586H246.406V255.802H259.375V281.586ZM278.828 281.586H265.859V255.802H278.828V281.586ZM163.666 146.619H135.848L134.551 159.11H164.963L163.666 146.619Z" fill="#7DE1E1"/>
</g>
<g filter="url(#filter1_i_119_78)">
<path fill-rule="evenodd" clip-rule="evenodd" d="M362.32 96.4447L226.659 19.2556C213.796 11.9343 198.082 11.9343 185.219 19.2556L49.5573 96.4447C36.5677 103.829 28.5205 117.651 28.5205 132.546L28.5205 286.229C28.5205 301.187 36.5677 314.946 49.5573 322.394L185.219 399.583C198.082 406.904 213.796 406.904 226.659 399.583L362.32 322.394C375.31 315.01 383.357 301.187 383.357 286.229V132.546C383.357 117.588 375.31 103.829 362.32 96.4447ZM55.8624 311.444C46.7857 306.232 41.1932 296.635 41.1932 286.229L41.1932 132.546C41.1932 122.177 46.8061 112.543 55.8389 107.408L191.505 30.2162C200.471 25.1125 211.405 25.1116 220.371 30.2153L356.035 107.405C365.077 112.545 370.684 122.125 370.684 132.546V286.229C370.684 296.672 365.062 306.301 356.039 311.431L220.373 388.622C211.406 393.726 200.473 393.726 191.506 388.623L55.8793 311.454L55.8624 311.444Z" fill="#7DE1E1"/>
<path fill-rule="evenodd" clip-rule="evenodd" d="M210.777 76.8792C210.777 91.8751 205.382 109.81 192.042 108.436C165.617 105.714 155.939 108.436 146.262 114.748C146.262 96.9287 171.806 94.1131 183.039 92.8748C183.743 92.7972 184.39 92.7259 184.971 92.6577C194.378 91.5457 207.552 89.502 210.777 76.8792ZM146.262 130.526C151.399 109.064 169.682 114.377 177.626 116.686C177.941 116.778 178.239 116.864 178.52 116.944C188.208 119.706 192.472 117.513 196.497 115.444C196.956 115.208 197.413 114.973 197.875 114.748C197.875 121.059 184.367 128.251 178.52 127.371C171.398 126.297 155.939 124.03 146.262 133.682V130.526ZM294.648 304.091V209.419L262.966 228.354V209.419L231.284 228.354V209.419L199.603 228.354V209.419L174.257 228.354L165.617 165.239H133.359L126.907 228.354H174.257V259.911H120.456V266.222H174.257V272.534H120.456L117.23 304.091H294.648ZM186.93 278.845H199.603V253.599H186.93V278.845ZM218.612 278.845H205.939V253.599H218.612V278.845ZM224.948 278.845H237.621V253.599H224.948V278.845ZM256.63 278.845H243.957V253.599H256.63V278.845ZM275.639 278.845H262.966V253.599H275.639V278.845ZM163.105 146.698H135.922L134.655 158.928H164.372L163.105 146.698Z" fill="#7DE1E1"/>
</g>
<defs>
<filter id="filter0_f_119_78" x="-10" y="-8" width="435" height="439" filterUnits="userSpaceOnUse" color-interpolation-filters="sRGB">
<feFlood flood-opacity="0" result="BackgroundImageFix"/>
<feBlend mode="normal" in="SourceGraphic" in2="BackgroundImageFix" result="shape"/>
<feGaussianBlur stdDeviation="5" result="effect1_foregroundBlur_119_78"/>
</filter>
<filter id="filter1_i_119_78" x="3.17505" y="5.10181" width="405.528" height="415.243" filterUnits="userSpaceOnUse" color-interpolation-filters="sRGB">
<feFlood flood-opacity="0" result="BackgroundImageFix"/>
<feBlend mode="normal" in="SourceGraphic" in2="BackgroundImageFix" result="shape"/>
<feColorMatrix in="SourceAlpha" type="matrix" values="0 0 0 0 0 0 0 0 0 0 0 0 0 0 0 0 0 0 127 0" result="hardAlpha"/>
<feOffset dy="5"/>
<feGaussianBlur stdDeviation="8"/>
<feComposite in2="hardAlpha" operator="arithmetic" k2="-1" k3="1"/>
<feColorMatrix type="matrix" values="0 0 0 0 0 0 0 0 0 0 0 0 0 0 0 0 0 0 0.25 0"/>
<feBlend mode="normal" in2="shape" result="effect1_innerShadow_119_78"/>
</filter>
</defs>
</svg>
