<svg width="662" height="412" viewBox="0 0 662 412" fill="none" xmlns="http://www.w3.org/2000/svg">
<g filter="url(#filter0_d_146_103)">
<rect x="43" y="39.8516" width="576" height="325" rx="25" fill="#C0C0C0" fill-opacity="0.22" shape-rendering="crispEdges"/>
</g>
<g filter="url(#filter1_d_146_103)">
<path d="M100.648 319.852V296.716L101.512 297.628H91.096V294.652H113.608V297.628H103.192L104.056 296.716V319.852H100.648ZM135.364 320.092C132.74 320.092 130.436 319.548 128.452 318.46C126.468 317.34 124.916 315.82 123.796 313.9C122.676 311.948 122.116 309.724 122.116 307.228C122.116 304.732 122.644 302.524 123.7 300.604C124.788 298.684 126.26 297.18 128.116 296.092C130.004 294.972 132.116 294.412 134.452 294.412C136.82 294.412 138.916 294.956 140.74 296.044C142.596 297.1 144.052 298.604 145.108 300.556C146.164 302.476 146.692 304.7 146.692 307.228C146.692 307.388 146.676 307.564 146.644 307.756C146.644 307.916 146.644 308.092 146.644 308.284H124.708V305.74H144.82L143.476 306.748C143.476 304.924 143.076 303.308 142.276 301.9C141.508 300.46 140.452 299.34 139.108 298.54C137.764 297.74 136.212 297.34 134.452 297.34C132.724 297.34 131.172 297.74 129.796 298.54C128.42 299.34 127.348 300.46 126.58 301.9C125.812 303.34 125.428 304.988 125.428 306.844V307.372C125.428 309.292 125.844 310.988 126.676 312.46C127.54 313.9 128.724 315.036 130.228 315.868C131.764 316.668 133.508 317.068 135.46 317.068C136.996 317.068 138.42 316.796 139.732 316.252C141.076 315.708 142.228 314.876 143.188 313.756L145.108 315.964C143.988 317.308 142.58 318.332 140.884 319.036C139.22 319.74 137.38 320.092 135.364 320.092ZM161.436 319.852V294.652H179.292V297.628H163.98L164.844 296.764V319.852H161.436ZM200.613 320.092C198.181 320.092 195.989 319.548 194.037 318.46C192.117 317.34 190.597 315.82 189.477 313.9C188.357 311.948 187.797 309.724 187.797 307.228C187.797 304.7 188.357 302.476 189.477 300.556C190.597 298.636 192.117 297.132 194.037 296.044C195.957 294.956 198.149 294.412 200.613 294.412C203.109 294.412 205.317 294.956 207.237 296.044C209.189 297.132 210.709 298.636 211.797 300.556C212.917 302.476 213.477 304.7 213.477 307.228C213.477 309.724 212.917 311.948 211.797 313.9C210.709 315.82 209.189 317.34 207.237 318.46C205.285 319.548 203.077 320.092 200.613 320.092ZM200.613 317.068C202.437 317.068 204.053 316.668 205.461 315.868C206.869 315.036 207.973 313.884 208.773 312.412C209.605 310.908 210.021 309.18 210.021 307.228C210.021 305.244 209.605 303.516 208.773 302.044C207.973 300.572 206.869 299.436 205.461 298.636C204.053 297.804 202.453 297.388 200.661 297.388C198.869 297.388 197.269 297.804 195.861 298.636C194.453 299.436 193.333 300.572 192.501 302.044C191.669 303.516 191.253 305.244 191.253 307.228C191.253 309.18 191.669 310.908 192.501 312.412C193.333 313.884 194.453 315.036 195.861 315.868C197.269 316.668 198.853 317.068 200.613 317.068ZM227.961 319.852V294.652H239.097C241.945 294.652 244.185 295.196 245.817 296.284C247.481 297.372 248.313 298.972 248.313 301.084C248.313 303.132 247.529 304.716 245.961 305.836C244.393 306.924 242.329 307.468 239.769 307.468L240.441 306.46C243.449 306.46 245.657 307.02 247.065 308.14C248.473 309.26 249.177 310.876 249.177 312.988C249.177 315.164 248.377 316.86 246.777 318.076C245.209 319.26 242.761 319.852 239.433 319.852H227.961ZM231.273 317.164H239.289C241.433 317.164 243.049 316.828 244.137 316.156C245.257 315.452 245.817 314.332 245.817 312.796C245.817 311.26 245.321 310.14 244.329 309.436C243.337 308.732 241.769 308.38 239.625 308.38H231.273V317.164ZM231.273 305.836H238.857C240.809 305.836 242.297 305.468 243.321 304.732C244.377 303.996 244.905 302.924 244.905 301.516C244.905 300.108 244.377 299.052 243.321 298.348C242.297 297.644 240.809 297.292 238.857 297.292H231.273V305.836ZM284.126 319.852V294.652H295.262C298.11 294.652 300.35 295.196 301.982 296.284C303.646 297.372 304.478 298.972 304.478 301.084C304.478 303.132 303.694 304.716 302.126 305.836C300.558 306.924 298.494 307.468 295.934 307.468L296.606 306.46C299.614 306.46 301.822 307.02 303.23 308.14C304.638 309.26 305.342 310.876 305.342 312.988C305.342 315.164 304.542 316.86 302.942 318.076C301.374 319.26 298.926 319.852 295.598 319.852H284.126ZM287.438 317.164H295.454C297.598 317.164 299.214 316.828 300.302 316.156C301.422 315.452 301.982 314.332 301.982 312.796C301.982 311.26 301.486 310.14 300.494 309.436C299.502 308.732 297.934 308.38 295.79 308.38H287.438V317.164ZM287.438 305.836H295.022C296.974 305.836 298.462 305.468 299.486 304.732C300.542 303.996 301.07 302.924 301.07 301.516C301.07 300.108 300.542 299.052 299.486 298.348C298.462 297.644 296.974 297.292 295.022 297.292H287.438V305.836ZM350.852 320.092C348.356 320.092 346.116 319.548 344.132 318.46C342.18 317.34 340.644 315.82 339.524 313.9C338.404 311.948 337.844 309.724 337.844 307.228C337.844 304.7 338.404 302.476 339.524 300.556C340.644 298.636 342.18 297.132 344.132 296.044C346.116 294.956 348.356 294.412 350.852 294.412C352.996 294.412 354.932 294.828 356.66 295.66C358.388 296.492 359.748 297.74 360.74 299.404L358.196 301.132C357.332 299.852 356.26 298.908 354.98 298.3C353.7 297.692 352.308 297.388 350.804 297.388C349.012 297.388 347.396 297.804 345.956 298.636C344.516 299.436 343.38 300.572 342.548 302.044C341.716 303.516 341.3 305.244 341.3 307.228C341.3 309.212 341.716 310.94 342.548 312.412C343.38 313.884 344.516 315.036 345.956 315.868C347.396 316.668 349.012 317.068 350.804 317.068C352.308 317.068 353.7 316.764 354.98 316.156C356.26 315.548 357.332 314.62 358.196 313.372L360.74 315.1C359.748 316.732 358.388 317.98 356.66 318.844C354.932 319.676 352.996 320.092 350.852 320.092ZM384.917 320.092C382.293 320.092 379.989 319.548 378.005 318.46C376.021 317.34 374.469 315.82 373.349 313.9C372.229 311.948 371.669 309.724 371.669 307.228C371.669 304.732 372.197 302.524 373.253 300.604C374.341 298.684 375.813 297.18 377.669 296.092C379.557 294.972 381.669 294.412 384.005 294.412C386.373 294.412 388.469 294.956 390.293 296.044C392.149 297.1 393.605 298.604 394.661 300.556C395.717 302.476 396.245 304.7 396.245 307.228C396.245 307.388 396.229 307.564 396.197 307.756C396.197 307.916 396.197 308.092 396.197 308.284H374.261V305.74H394.373L393.029 306.748C393.029 304.924 392.629 303.308 391.829 301.9C391.061 300.46 390.005 299.34 388.661 298.54C387.317 297.74 385.765 297.34 384.005 297.34C382.277 297.34 380.725 297.74 379.349 298.54C377.973 299.34 376.901 300.46 376.133 301.9C375.365 303.34 374.981 304.988 374.981 306.844V307.372C374.981 309.292 375.397 310.988 376.229 312.46C377.093 313.9 378.277 315.036 379.781 315.868C381.317 316.668 383.061 317.068 385.013 317.068C386.549 317.068 387.973 316.796 389.285 316.252C390.629 315.708 391.781 314.876 392.741 313.756L394.661 315.964C393.541 317.308 392.133 318.332 390.437 319.036C388.773 319.74 386.933 320.092 384.917 320.092ZM429.469 319.852L419.101 307.372L421.933 305.692L433.501 319.852H429.469ZM410.989 319.852V294.652H414.397V319.852H410.989ZM413.341 308.62V305.692H421.453V308.62H413.341ZM422.221 307.612L419.053 307.132L429.085 294.652H432.781L422.221 307.612ZM445.058 329.404C443.874 329.404 442.738 329.212 441.65 328.828C440.594 328.444 439.682 327.868 438.914 327.1L440.498 324.556C441.138 325.164 441.826 325.628 442.562 325.948C443.33 326.3 444.178 326.476 445.106 326.476C446.226 326.476 447.186 326.156 447.986 325.516C448.818 324.908 449.602 323.82 450.338 322.252L451.97 318.556L452.354 318.028L462.722 294.652H466.082L453.458 322.876C452.754 324.508 451.97 325.804 451.106 326.764C450.274 327.724 449.362 328.396 448.37 328.78C447.378 329.196 446.274 329.404 445.058 329.404ZM451.778 320.572L440.162 294.652H443.714L453.986 317.788L451.778 320.572ZM478.592 319.852V294.652H482V305.788H497.888V294.652H501.296V319.852H497.888V308.716H482V319.852H478.592ZM535.462 318.22V297.628H523.318L523.03 303.244C522.966 304.94 522.854 306.604 522.694 308.236C522.566 309.868 522.326 311.372 521.974 312.748C521.654 314.092 521.19 315.196 520.582 316.06C519.974 316.892 519.19 317.372 518.23 317.5L514.822 316.876C515.814 316.908 516.63 316.556 517.27 315.82C517.91 315.052 518.406 314.012 518.758 312.7C519.11 311.388 519.366 309.9 519.526 308.236C519.686 306.54 519.814 304.812 519.91 303.052L520.246 294.652H538.87V318.22H535.462ZM513.766 325.948V316.876H542.806V325.948H539.59V319.852H516.982V325.948H513.766ZM557.08 329.404C555.896 329.404 554.76 329.212 553.672 328.828C552.616 328.444 551.704 327.868 550.936 327.1L552.52 324.556C553.16 325.164 553.848 325.628 554.584 325.948C555.352 326.3 556.2 326.476 557.128 326.476C558.248 326.476 559.208 326.156 560.008 325.516C560.84 324.908 561.624 323.82 562.36 322.252L563.992 318.556L564.376 318.028L574.744 294.652H578.104L565.48 322.876C564.776 324.508 563.992 325.804 563.128 326.764C562.296 327.724 561.384 328.396 560.392 328.78C559.4 329.196 558.296 329.404 557.08 329.404ZM563.8 320.572L552.184 294.652H555.736L566.008 317.788L563.8 320.572Z" fill="white"/>
</g>
<mask id="path-3-outside-1_146_103" maskUnits="userSpaceOnUse" x="101" y="82" width="482" height="168" fill="black">
<rect fill="white" x="101" y="82" width="482" height="168"/>
<path d="M191.2 83.8V226H125.8V115.4L102.6 121.6V107.4L191.2 83.8ZM202.405 187.2H242.005L231.005 248.4H202.405V187.2ZM325.181 97.8H253.381V86H398.381L345.381 226H277.581L325.181 97.8ZM464.462 174.544V226H456.878V193.168C456.878 191.824 456.91 190.416 456.974 188.944C457.102 187.472 457.23 186.032 457.358 184.624H457.07L440.27 226H433.166L416.846 184.624H416.558C416.686 186.032 416.75 187.472 416.75 188.944C416.814 190.416 416.846 191.92 416.846 193.456V226H409.262V174.544H420.494L436.718 215.92L453.23 174.544H464.462ZM520.055 226H511.511V181.552H496.343C495.703 189.68 494.903 196.624 493.943 202.384C492.983 208.08 491.767 212.72 490.295 216.304C488.823 219.888 487.063 222.512 485.015 224.176C482.967 225.84 480.567 226.672 477.815 226.672C476.983 226.672 476.151 226.608 475.319 226.48C474.551 226.416 473.911 226.256 473.399 226V219.664C473.783 219.792 474.199 219.888 474.647 219.952C475.095 220.016 475.543 220.048 475.991 220.048C477.399 220.048 478.679 219.472 479.831 218.32C480.983 217.168 482.007 215.408 482.903 213.04C483.863 210.672 484.727 207.696 485.495 204.112C486.263 200.464 486.935 196.176 487.511 191.248C488.087 186.32 488.599 180.752 489.047 174.544H520.055V226ZM544.835 174.544V195.952H572.771V174.544H581.219V226H572.771V203.056H544.835V226H536.387V174.544H544.835Z"/>
</mask>
<path d="M191.2 83.8H192.2V82.4988L190.943 82.8337L191.2 83.8ZM191.2 226V227H192.2V226H191.2ZM125.8 226H124.8V227H125.8V226ZM125.8 115.4H126.8V114.098L125.542 114.434L125.8 115.4ZM102.6 121.6H101.6V122.902L102.858 122.566L102.6 121.6ZM102.6 107.4L102.343 106.434L101.6 106.631V107.4H102.6ZM190.2 83.8V226H192.2V83.8H190.2ZM191.2 225H125.8V227H191.2V225ZM126.8 226V115.4H124.8V226H126.8ZM125.542 114.434L102.342 120.634L102.858 122.566L126.058 116.366L125.542 114.434ZM103.6 121.6V107.4H101.6V121.6H103.6ZM102.857 108.366L191.457 84.7663L190.943 82.8337L102.343 106.434L102.857 108.366ZM202.405 187.2V186.2H201.405V187.2H202.405ZM242.005 187.2L242.989 187.377L243.2 186.2H242.005V187.2ZM231.005 248.4V249.4H231.841L231.989 248.577L231.005 248.4ZM202.405 248.4H201.405V249.4H202.405V248.4ZM202.405 188.2H242.005V186.2H202.405V188.2ZM241.02 187.023L230.02 248.223L231.989 248.577L242.989 187.377L241.02 187.023ZM231.005 247.4H202.405V249.4H231.005V247.4ZM203.405 248.4V187.2H201.405V248.4H203.405ZM325.181 97.8L326.119 98.1481L326.619 96.8H325.181V97.8ZM253.381 97.8H252.381V98.8H253.381V97.8ZM253.381 86V85H252.381V86H253.381ZM398.381 86L399.316 86.354L399.829 85H398.381V86ZM345.381 226V227H346.072L346.316 226.354L345.381 226ZM277.581 226L276.644 225.652L276.143 227H277.581V226ZM325.181 96.8H253.381V98.8H325.181V96.8ZM254.381 97.8V86H252.381V97.8H254.381ZM253.381 87H398.381V85H253.381V87ZM397.446 85.6459L344.446 225.646L346.316 226.354L399.316 86.354L397.446 85.6459ZM345.381 225H277.581V227H345.381V225ZM278.519 226.348L326.119 98.1481L324.244 97.4519L276.644 225.652L278.519 226.348ZM464.462 174.544H465.462V173.544H464.462V174.544ZM464.462 226V227H465.462V226H464.462ZM456.878 226H455.878V227H456.878V226ZM456.974 188.944L455.977 188.857L455.975 188.879L455.975 188.901L456.974 188.944ZM457.358 184.624L458.353 184.715L458.453 183.624H457.358V184.624ZM457.07 184.624V183.624H456.396L456.143 184.248L457.07 184.624ZM440.27 226V227H440.943L441.196 226.376L440.27 226ZM433.166 226L432.235 226.367L432.485 227H433.166V226ZM416.846 184.624L417.776 184.257L417.526 183.624H416.846V184.624ZM416.558 184.624V183.624H415.463L415.562 184.715L416.558 184.624ZM416.75 188.944H415.75V188.966L415.751 188.987L416.75 188.944ZM416.846 226V227H417.846V226H416.846ZM409.262 226H408.262V227H409.262V226ZM409.262 174.544V173.544H408.262V174.544H409.262ZM420.494 174.544L421.425 174.179L421.176 173.544H420.494V174.544ZM436.718 215.92L435.787 216.285L436.709 218.638L437.646 216.291L436.718 215.92ZM453.23 174.544V173.544H452.552L452.301 174.173L453.23 174.544ZM463.462 174.544V226H465.462V174.544H463.462ZM464.462 225H456.878V227H464.462V225ZM457.878 226V193.168H455.878V226H457.878ZM457.878 193.168C457.878 191.84 457.909 190.446 457.973 188.987L455.975 188.901C455.91 190.386 455.878 191.808 455.878 193.168H457.878ZM457.97 189.031C458.098 187.56 458.226 186.121 458.353 184.715L456.362 184.533C456.234 185.943 456.105 187.384 455.977 188.857L457.97 189.031ZM457.358 183.624H457.07V185.624H457.358V183.624ZM456.143 184.248L439.343 225.624L441.196 226.376L457.996 185L456.143 184.248ZM440.27 225H433.166V227H440.27V225ZM434.096 225.633L417.776 184.257L415.915 184.991L432.235 226.367L434.096 225.633ZM416.846 183.624H416.558V185.624H416.846V183.624ZM415.562 184.715C415.687 186.091 415.75 187.501 415.75 188.944H417.75C417.75 187.443 417.684 185.973 417.553 184.533L415.562 184.715ZM415.751 188.987C415.814 190.444 415.846 191.934 415.846 193.456H417.846C417.846 191.906 417.813 190.388 417.749 188.901L415.751 188.987ZM415.846 193.456V226H417.846V193.456H415.846ZM416.846 225H409.262V227H416.846V225ZM410.262 226V174.544H408.262V226H410.262ZM409.262 175.544H420.494V173.544H409.262V175.544ZM419.563 174.909L435.787 216.285L437.649 215.555L421.425 174.179L419.563 174.909ZM437.646 216.291L454.158 174.915L452.301 174.173L435.789 215.549L437.646 216.291ZM453.23 175.544H464.462V173.544H453.23V175.544ZM520.055 226V227H521.055V226H520.055ZM511.511 226H510.511V227H511.511V226ZM511.511 181.552H512.511V180.552H511.511V181.552ZM496.343 181.552V180.552H495.418L495.346 181.474L496.343 181.552ZM493.943 202.384L494.929 202.55L494.929 202.548L493.943 202.384ZM485.015 224.176L484.384 223.4L485.015 224.176ZM475.319 226.48L475.471 225.492L475.436 225.486L475.402 225.483L475.319 226.48ZM473.399 226H472.399V226.618L472.951 226.894L473.399 226ZM473.399 219.664L473.715 218.715L472.399 218.277V219.664H473.399ZM474.647 219.952L474.505 220.942L474.647 219.952ZM479.831 218.32L479.123 217.613L479.831 218.32ZM482.903 213.04L481.976 212.664L481.971 212.675L481.967 212.686L482.903 213.04ZM485.495 204.112L486.472 204.322L486.473 204.318L485.495 204.112ZM487.511 191.248L488.504 191.364L487.511 191.248ZM489.047 174.544V173.544H488.116L488.049 174.472L489.047 174.544ZM520.055 174.544H521.055V173.544H520.055V174.544ZM520.055 225H511.511V227H520.055V225ZM512.511 226V181.552H510.511V226H512.511ZM511.511 180.552H496.343V182.552H511.511V180.552ZM495.346 181.474C494.707 189.583 493.91 196.497 492.956 202.22L494.929 202.548C495.895 196.751 496.698 189.777 497.339 181.63L495.346 181.474ZM492.956 202.218C492.003 207.873 490.803 212.433 489.37 215.924L491.22 216.684C492.73 213.007 493.962 208.287 494.929 202.55L492.956 202.218ZM489.37 215.924C487.933 219.421 486.256 221.879 484.384 223.4L485.645 224.952C487.87 223.145 489.712 220.355 491.22 216.684L489.37 215.924ZM484.384 223.4C482.522 224.912 480.348 225.672 477.815 225.672V227.672C480.786 227.672 483.411 226.768 485.645 224.952L484.384 223.4ZM477.815 225.672C477.034 225.672 476.253 225.612 475.471 225.492L475.167 227.468C476.048 227.604 476.931 227.672 477.815 227.672V225.672ZM475.402 225.483C474.719 225.427 474.212 225.289 473.846 225.106L472.951 226.894C473.609 227.223 474.382 227.405 475.236 227.477L475.402 225.483ZM474.399 226V219.664H472.399V226H474.399ZM473.082 220.613C473.529 220.762 474.005 220.87 474.505 220.942L474.788 218.962C474.393 218.906 474.036 218.822 473.715 218.715L473.082 220.613ZM474.505 220.942C475 221.013 475.495 221.048 475.991 221.048V219.048C475.59 219.048 475.19 219.019 474.788 218.962L474.505 220.942ZM475.991 221.048C477.706 221.048 479.23 220.335 480.538 219.027L479.123 217.613C478.127 218.609 477.091 219.048 475.991 219.048V221.048ZM480.538 219.027C481.83 217.735 482.917 215.829 483.838 213.394L481.967 212.686C481.096 214.987 480.135 216.601 479.123 217.613L480.538 219.027ZM483.829 213.416C484.818 210.976 485.697 207.94 486.472 204.322L484.517 203.902C483.756 207.452 482.907 210.368 481.976 212.664L483.829 213.416ZM486.473 204.318C487.249 200.632 487.925 196.313 488.504 191.364L486.517 191.132C485.944 196.039 485.276 200.296 484.516 203.906L486.473 204.318ZM488.504 191.364C489.082 186.418 489.595 180.835 490.044 174.616L488.049 174.472C487.602 180.669 487.091 186.222 486.517 191.132L488.504 191.364ZM489.047 175.544H520.055V173.544H489.047V175.544ZM519.055 174.544V226H521.055V174.544H519.055ZM544.835 174.544H545.835V173.544H544.835V174.544ZM544.835 195.952H543.835V196.952H544.835V195.952ZM572.771 195.952V196.952H573.771V195.952H572.771ZM572.771 174.544V173.544H571.771V174.544H572.771ZM581.219 174.544H582.219V173.544H581.219V174.544ZM581.219 226V227H582.219V226H581.219ZM572.771 226H571.771V227H572.771V226ZM572.771 203.056H573.771V202.056H572.771V203.056ZM544.835 203.056V202.056H543.835V203.056H544.835ZM544.835 226V227H545.835V226H544.835ZM536.387 226H535.387V227H536.387V226ZM536.387 174.544V173.544H535.387V174.544H536.387ZM543.835 174.544V195.952H545.835V174.544H543.835ZM544.835 196.952H572.771V194.952H544.835V196.952ZM573.771 195.952V174.544H571.771V195.952H573.771ZM572.771 175.544H581.219V173.544H572.771V175.544ZM580.219 174.544V226H582.219V174.544H580.219ZM581.219 225H572.771V227H581.219V225ZM573.771 226V203.056H571.771V226H573.771ZM572.771 202.056H544.835V204.056H572.771V202.056ZM543.835 203.056V226H545.835V203.056H543.835ZM544.835 225H536.387V227H544.835V225ZM537.387 226V174.544H535.387V226H537.387ZM536.387 175.544H544.835V173.544H536.387V175.544Z" fill="url(#paint0_linear_146_103)" mask="url(#path-3-outside-1_146_103)"/>
<g filter="url(#filter2_di_146_103)">
<path d="M185.2 88.8V231H119.8V120.4L96.6 126.6V112.4L185.2 88.8ZM196.405 192.2H236.005L225.005 253.4H196.405V192.2ZM319.181 102.8H247.381V91H392.381L339.381 231H271.581L319.181 102.8ZM458.462 179.544V231H450.878V198.168C450.878 196.824 450.91 195.416 450.974 193.944C451.102 192.472 451.23 191.032 451.358 189.624H451.07L434.27 231H427.166L410.846 189.624H410.558C410.686 191.032 410.75 192.472 410.75 193.944C410.814 195.416 410.846 196.92 410.846 198.456V231H403.262V179.544H414.494L430.718 220.92L447.23 179.544H458.462ZM514.055 231H505.511V186.552H490.343C489.703 194.68 488.903 201.624 487.943 207.384C486.983 213.08 485.767 217.72 484.295 221.304C482.823 224.888 481.063 227.512 479.015 229.176C476.967 230.84 474.567 231.672 471.815 231.672C470.983 231.672 470.151 231.608 469.319 231.48C468.551 231.416 467.911 231.256 467.399 231V224.664C467.783 224.792 468.199 224.888 468.647 224.952C469.095 225.016 469.543 225.048 469.991 225.048C471.399 225.048 472.679 224.472 473.831 223.32C474.983 222.168 476.007 220.408 476.903 218.04C477.863 215.672 478.727 212.696 479.495 209.112C480.263 205.464 480.935 201.176 481.511 196.248C482.087 191.32 482.599 185.752 483.047 179.544H514.055V231ZM538.835 179.544V200.952H566.771V179.544H575.219V231H566.771V208.056H538.835V231H530.387V179.544H538.835Z" fill="white"/>
</g>
<defs>
<filter id="filter0_d_146_103" x="0" y="0.851562" width="662" height="411" filterUnits="userSpaceOnUse" color-interpolation-filters="sRGB">
<feFlood flood-opacity="0" result="BackgroundImageFix"/>
<feColorMatrix in="SourceAlpha" type="matrix" values="0 0 0 0 0 0 0 0 0 0 0 0 0 0 0 0 0 0 127 0" result="hardAlpha"/>
<feMorphology radius="13" operator="dilate" in="SourceAlpha" result="effect1_dropShadow_146_103"/>
<feOffset dy="4"/>
<feGaussianBlur stdDeviation="15"/>
<feComposite in2="hardAlpha" operator="out"/>
<feColorMatrix type="matrix" values="0 0 0 0 0 0 0 0 0 0 0 0 0 0 0 0 0 0 0.25 0"/>
<feBlend mode="normal" in2="BackgroundImageFix" result="effect1_dropShadow_146_103"/>
<feBlend mode="normal" in="SourceGraphic" in2="effect1_dropShadow_146_103" result="shape"/>
</filter>
<filter id="filter1_d_146_103" x="87.0959" y="294.412" width="495.008" height="42.9919" filterUnits="userSpaceOnUse" color-interpolation-filters="sRGB">
<feFlood flood-opacity="0" result="BackgroundImageFix"/>
<feColorMatrix in="SourceAlpha" type="matrix" values="0 0 0 0 0 0 0 0 0 0 0 0 0 0 0 0 0 0 127 0" result="hardAlpha"/>
<feOffset dy="4"/>
<feGaussianBlur stdDeviation="2"/>
<feComposite in2="hardAlpha" operator="out"/>
<feColorMatrix type="matrix" values="0 0 0 0 0 0 0 0 0 0 0 0 0 0 0 0 0 0 0.25 0"/>
<feBlend mode="normal" in2="BackgroundImageFix" result="effect1_dropShadow_146_103"/>
<feBlend mode="normal" in="SourceGraphic" in2="effect1_dropShadow_146_103" result="shape"/>
</filter>
<filter id="filter2_di_146_103" x="92.6" y="88.8" width="486.619" height="172.6" filterUnits="userSpaceOnUse" color-interpolation-filters="sRGB">
<feFlood flood-opacity="0" result="BackgroundImageFix"/>
<feColorMatrix in="SourceAlpha" type="matrix" values="0 0 0 0 0 0 0 0 0 0 0 0 0 0 0 0 0 0 127 0" result="hardAlpha"/>
<feOffset dy="4"/>
<feGaussianBlur stdDeviation="2"/>
<feComposite in2="hardAlpha" operator="out"/>
<feColorMatrix type="matrix" values="0 0 0 0 0 0 0 0 0 0 0 0 0 0 0 0 0 0 0.25 0"/>
<feBlend mode="normal" in2="BackgroundImageFix" result="effect1_dropShadow_146_103"/>
<feBlend mode="normal" in="SourceGraphic" in2="effect1_dropShadow_146_103" result="shape"/>
<feColorMatrix in="SourceAlpha" type="matrix" values="0 0 0 0 0 0 0 0 0 0 0 0 0 0 0 0 0 0 127 0" result="hardAlpha"/>
<feOffset dy="4"/>
<feGaussianBlur stdDeviation="24"/>
<feComposite in2="hardAlpha" operator="arithmetic" k2="-1" k3="1"/>
<feColorMatrix type="matrix" values="0 0 0 0 0 0 0 0 0 0 0 0 0 0 0 0 0 0 0.25 0"/>
<feBlend mode="plus-darker" in2="shape" result="effect2_innerShadow_146_103"/>
</filter>
<linearGradient id="paint0_linear_146_103" x1="363.5" y1="95" x2="363.5" y2="269" gradientUnits="userSpaceOnUse">
<stop stop-color="white"/>
<stop offset="0.405" stop-color="#788B8B"/>
<stop offset="1" stop-color="#496262"/>
</linearGradient>
</defs>
</svg>
