<svg width="155" height="139" viewBox="0 0 155 139" fill="none" xmlns="http://www.w3.org/2000/svg">
<g clip-path="url(#clip0_360_4)" filter="url(#filter0_f_360_4)">
<mask id="mask0_360_4" style="mask-type:luminance" maskUnits="userSpaceOnUse" x="8" y="0" width="139" height="139">
<path d="M147 0H8V139H147V0Z" fill="white"/>
</mask>
<g mask="url(#mask0_360_4)">
<path d="M89.0833 83.9791H19.5833V37.6458H89.0833V83.9791ZM91.9792 28.9583H16.6875C13.5021 28.9583 10.8958 31.5645 10.8958 34.7499V86.8749C10.8958 90.0603 13.5021 92.6666 16.6875 92.6666H45.6458V101.354H32.6146V110.042H76.0521V101.354H63.0208V92.6666H91.9792C95.1646 92.6666 97.7708 90.0603 97.7708 86.8749V34.7499C97.7708 31.5645 95.1646 28.9583 91.9792 28.9583Z" fill="#E6585F"/>
<path d="M138.312 43.4374H109.354V34.7499H138.312V43.4374ZM138.312 57.9166H109.354V49.2291H138.312V57.9166ZM123.833 101.354C121.372 101.354 119.49 99.4718 119.49 97.0103C119.49 94.5489 121.372 92.6666 123.833 92.6666C126.295 92.6666 128.177 94.5489 128.177 97.0103C128.177 99.4718 126.295 101.354 123.833 101.354ZM138.312 28.9583H109.354C106.169 28.9583 103.562 31.5645 103.562 34.7499V104.25C103.562 107.435 106.169 110.042 109.354 110.042H138.312C141.498 110.042 144.104 107.435 144.104 104.25V34.7499C144.104 31.5645 141.498 28.9583 138.312 28.9583Z" fill="#E6585F"/>
</g>
</g>
<g clip-path="url(#clip1_360_4)">
<mask id="mask1_360_4" style="mask-type:luminance" maskUnits="userSpaceOnUse" x="10" y="2" width="134" height="135">
<path d="M144 2.5H10V136.5H144V2.5Z" fill="white"/>
</mask>
<g mask="url(#mask1_360_4)">
<path d="M88.1667 83.4584H21.1667V38.7917H88.1667V83.4584ZM90.9583 30.4167H18.375C15.3042 30.4167 12.7917 32.9292 12.7917 36.0001V86.2501C12.7917 89.3209 15.3042 91.8334 18.375 91.8334H46.2917V100.208H33.7292V108.583H75.6042V100.208H63.0417V91.8334H90.9583C94.0292 91.8334 96.5417 89.3209 96.5417 86.2501V36.0001C96.5417 32.9292 94.0292 30.4167 90.9583 30.4167Z" fill="#E6585F"/>
<path d="M135.625 44.3751H107.708V36.0001H135.625V44.3751ZM135.625 58.3334H107.708V49.9584H135.625V58.3334ZM121.667 100.208C119.294 100.208 117.479 98.3938 117.479 96.0209C117.479 93.648 119.294 91.8334 121.667 91.8334C124.04 91.8334 125.854 93.648 125.854 96.0209C125.854 98.3938 124.04 100.208 121.667 100.208ZM135.625 30.4167H107.708C104.637 30.4167 102.125 32.9292 102.125 36.0001V103C102.125 106.071 104.637 108.583 107.708 108.583H135.625C138.696 108.583 141.208 106.071 141.208 103V36.0001C141.208 32.9292 138.696 30.4167 135.625 30.4167Z" fill="#E6585F"/>
</g>
</g>
<defs>
<filter id="filter0_f_360_4" x="-2" y="-10" width="159" height="159" filterUnits="userSpaceOnUse" color-interpolation-filters="sRGB">
<feFlood flood-opacity="0" result="BackgroundImageFix"/>
<feBlend mode="normal" in="SourceGraphic" in2="BackgroundImageFix" result="shape"/>
<feGaussianBlur stdDeviation="5" result="effect1_foregroundBlur_360_4"/>
</filter>
<clipPath id="clip0_360_4">
<rect width="139" height="139" fill="white" transform="translate(8)"/>
</clipPath>
<clipPath id="clip1_360_4">
<rect width="134" height="134" fill="white" transform="translate(10 2.5)"/>
</clipPath>
</defs>
</svg>
