<svg width="172" height="162" viewBox="0 0 172 162" fill="none" xmlns="http://www.w3.org/2000/svg">
<g clip-path="url(#clip0_361_5)" filter="url(#filter0_f_361_5)">
<mask id="mask0_361_5" style="mask-type:luminance" maskUnits="userSpaceOnUse" x="8" y="3" width="156" height="156">
<path d="M164 3H8V159H164V3Z" fill="white"/>
</mask>
<g mask="url(#mask0_361_5)">
<path d="M110.05 102.612C110.862 100.987 110.375 99.0374 108.75 98.2249C107.125 97.4124 105.175 97.8998 104.362 99.5248L97.8625 111.062L102.25 93.6748C102.738 91.8873 101.6 90.0998 99.8125 89.7748C98.025 89.2873 96.2375 90.4248 95.9125 92.2123L92.175 107.162V90.9124C92.175 89.1249 90.7125 87.6624 88.925 87.6624C87.1375 87.6624 85.675 89.1249 85.675 90.9124V108.3L81.9375 92.2123C81.6125 90.4248 79.825 89.4498 78.0375 89.7748C76.25 90.0998 75.275 91.8873 75.6 93.6748L80.15 113.012C79.9875 115.287 79.5 117.562 79.0125 119.512C79.0125 119.512 79.0125 119.35 78.85 119.35C76.0875 115.125 71.7 111.387 67.475 110.25C65.85 109.762 64.225 110.737 63.7375 112.362C63.25 113.987 64.225 115.612 65.85 116.1C67.9625 116.587 69.9125 119.675 72.025 122.925C74.625 126.987 77.875 131.7 82.75 134.462V151.85H97.05V133.487C102.412 130.725 103.063 119.187 103.225 114.8L110.05 102.612Z" fill="#7DE1E1"/>
<path d="M52.6875 103.912L66.825 104.075C68.6125 104.075 70.075 102.612 70.075 100.825C70.075 99.0374 68.6125 97.5749 66.825 97.5749L53.6625 97.4124L70.8875 93.0249C72.675 92.5374 73.65 90.7499 73.1625 89.1249C72.675 87.3374 70.8875 86.3624 69.2625 86.8499L54.3125 90.7499L68.6125 82.9499C70.2375 82.1374 70.725 80.1874 69.9125 78.5624C69.1 76.9374 67.15 76.4499 65.525 77.2624L50.25 85.3874L62.6 74.4999C63.9 73.3624 64.0625 71.2499 62.925 69.9499C61.7875 68.6499 59.675 68.4874 58.375 69.6249L43.425 82.6249C41.3125 83.5999 39.2 84.2499 37.0875 84.5749C37.0875 84.5749 37.0875 84.4124 37.25 84.4124C39.6875 79.8624 40.825 74.3374 39.85 70.1124C39.525 68.4874 37.7375 67.5124 36.1125 67.8374C34.4875 68.1624 33.5125 69.9499 33.8375 71.5749C34.325 73.6874 32.7 76.7749 30.9125 80.1874C28.6375 84.4124 26.0375 89.4499 25.875 95.1374L10.6 103.425L17.425 115.937L33.5125 107.325C38.3875 110.737 48.7875 105.862 52.6875 103.912Z" fill="#7DE1E1"/>
<path d="M54.475 50.9374L57.8875 64.5874C58.2125 66.0499 59.5125 67.0249 60.975 67.0249C61.3 67.0249 61.4625 67.0249 61.7875 66.8624C63.575 66.3749 64.55 64.7499 64.225 62.9624L61.1375 50.1249L69.75 65.5624C70.4 66.6999 71.375 67.1874 72.675 67.1874C73.1625 67.1874 73.8125 67.0249 74.3 66.6999C75.925 65.8874 76.4125 63.7749 75.6 62.3124L68.125 48.8249L79.175 60.6874C79.825 61.3374 80.6375 61.6624 81.6125 61.6624C82.425 61.6624 83.2375 61.3374 83.8875 60.8499C85.1875 59.5499 85.1875 57.5999 84.05 56.2999L72.1875 43.6249L86 52.8874C86.4875 53.2124 87.1375 53.3749 87.7875 53.3749C88.7625 53.3749 89.9 52.8874 90.55 51.9124C91.525 50.4499 91.2 48.3374 89.7375 47.3624L73.1625 36.3124C71.7 34.5249 70.5625 32.5749 69.5875 30.7874H69.75C74.625 31.9249 80.3125 31.7624 84.2125 29.6499C85.675 28.8374 86.1625 27.0499 85.35 25.5874C84.5375 24.1249 82.75 23.6374 81.2875 24.4499C79.5 25.4249 75.925 24.6124 72.1875 23.7999C67.475 22.6624 61.95 21.3624 56.425 22.8249L44.5625 10.1499L34.1625 19.8999L46.675 33.2249C44.075 38.9124 51.3875 47.8499 54.475 50.9374Z" fill="#7DE1E1"/>
<path d="M161.4 114.8L149.05 101.312C151.163 95.625 143.85 86.6875 140.925 83.4375L137.675 69.7875C137.188 68 135.563 67.025 133.775 67.35C131.988 67.8375 131.013 69.4625 131.338 71.25L134.425 84.0875L125.813 68.4875C125 66.8625 123.05 66.375 121.425 67.1875C119.8 68 119.313 69.95 120.125 71.575L127.6 85.225L116.55 73.3625C115.25 72.0625 113.3 71.9 112 73.2C110.7 74.5 110.538 76.45 111.838 77.75L123.7 90.5875L110.05 81.325C108.588 80.35 106.475 80.675 105.5 82.1375C104.525 83.6 104.85 85.7125 106.313 86.6875L122.725 97.9C124.188 99.6875 125.325 101.637 126.3 103.425H126.138C121.263 102.287 115.575 102.45 111.675 104.562C110.213 105.375 109.563 107.162 110.375 108.625C111.188 110.087 112.975 110.737 114.438 109.925C116.225 108.95 119.8 109.762 123.538 110.737C128.25 111.875 133.775 113.175 139.3 111.875L151 124.55L161.4 114.8Z" fill="#7DE1E1"/>
<path d="M94.6125 45.2499C94.9375 45.2499 95.2625 45.2499 95.75 45.0874L108.1 40.6999L93.475 50.7749C92.0125 51.7499 91.6875 53.8624 92.6625 55.3249C93.3125 56.2999 94.2875 56.7874 95.2625 56.7874C95.9125 56.7874 96.5625 56.6249 97.05 56.1374L109.725 47.3624L99 59.5499C97.8625 60.8499 98.025 62.9624 99.325 64.0999C99.975 64.5874 100.625 64.9124 101.437 64.9124C102.412 64.9124 103.225 64.5874 103.875 63.7749L115.412 50.6124L107.612 65.2374C106.8 66.8624 107.287 68.8124 108.912 69.6249C109.4 69.9499 109.887 69.9499 110.375 69.9499C111.512 69.9499 112.65 69.2999 113.3 68.1624L122.725 50.6124C124.35 48.9874 126.137 47.6874 127.925 46.5499V46.7124C127.275 51.7499 128.087 57.4374 130.525 61.0124C131.5 62.4749 133.287 62.7999 134.75 61.8249C136.212 60.8499 136.537 59.0624 135.562 57.5999C134.425 55.8124 134.912 52.2374 135.4 48.3374C136.05 43.6249 136.7 37.9374 134.912 32.5749L146.287 19.5749L135.562 10.1499L123.537 23.9624C117.687 22.4999 109.562 30.7874 106.637 33.8749L93.3125 38.5874C91.6875 39.2374 90.7125 41.0249 91.3625 42.8124C92.0125 44.4374 93.3125 45.2499 94.6125 45.2499Z" fill="#7DE1E1"/>
</g>
</g>
<g clip-path="url(#clip1_361_5)">
<mask id="mask1_361_5" style="mask-type:luminance" maskUnits="userSpaceOnUse" x="11" y="6" width="150" height="150">
<path d="M161 6H11V156H161V6Z" fill="white"/>
</mask>
<g mask="url(#mask1_361_5)">
<path d="M109.125 101.781C109.906 100.219 109.438 98.3438 107.875 97.5625C106.313 96.7812 104.437 97.25 103.656 98.8125L97.4062 109.906L101.625 93.1875C102.094 91.4687 101 89.75 99.2813 89.4375C97.5625 88.9687 95.8438 90.0625 95.5313 91.7812L91.9375 106.156V90.5312C91.9375 88.8125 90.5312 87.4062 88.8125 87.4062C87.0937 87.4062 85.6875 88.8125 85.6875 90.5312V107.25L82.0938 91.7812C81.7813 90.0625 80.0625 89.125 78.3438 89.4375C76.625 89.75 75.6875 91.4687 76 93.1875L80.375 111.781C80.2187 113.969 79.75 116.156 79.2813 118.031C79.2813 118.031 79.2813 117.875 79.125 117.875C76.4688 113.812 72.25 110.219 68.1875 109.125C66.625 108.656 65.0625 109.594 64.5937 111.156C64.125 112.719 65.0625 114.281 66.625 114.75C68.6563 115.219 70.5312 118.187 72.5625 121.312C75.0625 125.219 78.1875 129.75 82.875 132.406V149.125H96.625V131.469C101.781 128.812 102.406 117.719 102.563 113.5L109.125 101.781Z" fill="#7DE1E1"/>
<path d="M53.9687 103.031L67.5625 103.188C69.2813 103.188 70.6875 101.781 70.6875 100.063C70.6875 98.3438 69.2813 96.9376 67.5625 96.9376L54.9062 96.7813L71.4688 92.5626C73.1875 92.0938 74.125 90.3751 73.6562 88.8126C73.1875 87.0938 71.4688 86.1563 69.9063 86.6251L55.5312 90.3751L69.2812 82.8751C70.8437 82.0938 71.3125 80.2188 70.5312 78.6563C69.75 77.0938 67.875 76.6251 66.3125 77.4063L51.625 85.2188L63.5 74.7501C64.75 73.6563 64.9062 71.6251 63.8125 70.3751C62.7187 69.1251 60.6875 68.9688 59.4375 70.0626L45.0625 82.5626C43.0312 83.5001 41 84.1251 38.9687 84.4376C38.9687 84.4376 38.9687 84.2813 39.125 84.2813C41.4687 79.9063 42.5625 74.5938 41.625 70.5313C41.3125 68.9688 39.5937 68.0313 38.0312 68.3438C36.4687 68.6563 35.5312 70.3751 35.8437 71.9376C36.3125 73.9688 34.75 76.9376 33.0312 80.2188C30.8438 84.2813 28.3437 89.1251 28.1875 94.5938L13.5 102.563L20.0625 114.594L35.5312 106.313C40.2187 109.594 50.2187 104.906 53.9687 103.031Z" fill="#7DE1E1"/>
<path d="M55.6875 52.0938L58.9688 65.2188C59.2813 66.625 60.5312 67.5625 61.9375 67.5625C62.25 67.5625 62.4062 67.5625 62.7188 67.4062C64.4375 66.9375 65.375 65.375 65.0625 63.6562L62.0938 51.3125L70.375 66.1563C71 67.25 71.9375 67.7188 73.1875 67.7188C73.6562 67.7188 74.2812 67.5625 74.75 67.25C76.3125 66.4688 76.7812 64.4375 76 63.0313L68.8125 50.0625L79.4375 61.4688C80.0625 62.0938 80.8437 62.4063 81.7812 62.4063C82.5625 62.4063 83.3438 62.0938 83.9688 61.625C85.2188 60.375 85.2187 58.5 84.125 57.25L72.7187 45.0625L86 53.9688C86.4687 54.2813 87.0938 54.4375 87.7188 54.4375C88.6562 54.4375 89.75 53.9688 90.375 53.0313C91.3125 51.625 91 49.5937 89.5937 48.6562L73.6562 38.0313C72.25 36.3125 71.1562 34.4375 70.2187 32.7188H70.375C75.0625 33.8125 80.5312 33.6562 84.2812 31.625C85.6875 30.8438 86.1562 29.125 85.375 27.7188C84.5938 26.3125 82.875 25.8438 81.4688 26.625C79.75 27.5625 76.3125 26.7812 72.7187 26C68.1875 24.9062 62.875 23.6563 57.5625 25.0625L46.1562 12.875L36.1562 22.25L48.1875 35.0625C45.6875 40.5313 52.7188 49.125 55.6875 52.0938Z" fill="#7DE1E1"/>
<path d="M158.5 113.5L146.625 100.531C148.656 95.0625 141.625 86.4688 138.812 83.3438L135.687 70.2188C135.219 68.5 133.656 67.5625 131.937 67.875C130.219 68.3438 129.281 69.9063 129.594 71.625L132.562 83.9688L124.281 68.9688C123.5 67.4063 121.625 66.9375 120.062 67.7188C118.5 68.5 118.031 70.3751 118.812 71.9376L126 85.0625L115.375 73.6563C114.125 72.4063 112.25 72.2501 111 73.5001C109.75 74.7501 109.594 76.625 110.844 77.875L122.25 90.2188L109.125 81.3126C107.719 80.3751 105.687 80.6876 104.75 82.0938C103.812 83.5001 104.125 85.5313 105.531 86.4688L121.313 97.25C122.719 98.9688 123.812 100.844 124.75 102.563H124.594C119.906 101.469 114.437 101.625 110.687 103.656C109.281 104.438 108.656 106.156 109.437 107.563C110.219 108.969 111.937 109.594 113.344 108.813C115.062 107.875 118.5 108.656 122.094 109.594C126.625 110.688 131.937 111.938 137.25 110.688L148.5 122.875L158.5 113.5Z" fill="#7DE1E1"/>
<path d="M94.2812 46.625C94.5937 46.625 94.9062 46.625 95.375 46.4688L107.25 42.25L93.1875 51.9375C91.7812 52.875 91.4687 54.9063 92.4062 56.3125C93.0312 57.25 93.9687 57.7188 94.9062 57.7188C95.5312 57.7188 96.1562 57.5625 96.625 57.0938L108.812 48.6562L98.5 60.375C97.4062 61.625 97.5625 63.6563 98.8125 64.75C99.4375 65.2188 100.062 65.5313 100.844 65.5313C101.781 65.5313 102.562 65.2188 103.187 64.4375L114.281 51.7812L106.781 65.8437C106 67.4062 106.469 69.2813 108.031 70.0625C108.5 70.375 108.969 70.375 109.437 70.375C110.531 70.375 111.625 69.75 112.25 68.6563L121.312 51.7812C122.875 50.2187 124.594 48.9687 126.312 47.875V48.0312C125.687 52.875 126.469 58.3438 128.812 61.7813C129.75 63.1875 131.469 63.5 132.875 62.5625C134.281 61.625 134.594 59.9063 133.656 58.5C132.562 56.7813 133.031 53.3438 133.5 49.5938C134.125 45.0625 134.75 39.5938 133.031 34.4375L143.969 21.9375L133.656 12.875L122.094 26.1562C116.469 24.75 108.656 32.7188 105.844 35.6875L93.0312 40.2188C91.4687 40.8438 90.5312 42.5625 91.1562 44.2813C91.7812 45.8438 93.0312 46.625 94.2812 46.625Z" fill="#7DE1E1"/>
</g>
</g>
<defs>
<filter id="filter0_f_361_5" x="-2" y="-7" width="176" height="176" filterUnits="userSpaceOnUse" color-interpolation-filters="sRGB">
<feFlood flood-opacity="0" result="BackgroundImageFix"/>
<feBlend mode="normal" in="SourceGraphic" in2="BackgroundImageFix" result="shape"/>
<feGaussianBlur stdDeviation="5" result="effect1_foregroundBlur_361_5"/>
</filter>
<clipPath id="clip0_361_5">
<rect width="156" height="156" fill="white" transform="translate(8 3)"/>
</clipPath>
<clipPath id="clip1_361_5">
<rect width="150" height="150" fill="white" transform="translate(11 6)"/>
</clipPath>
</defs>
</svg>
