<svg width="152" height="146" viewBox="0 0 152 146" fill="none" xmlns="http://www.w3.org/2000/svg">
<g filter="url(#filter0_f_361_7)">
<mask id="mask0_361_7" style="mask-type:luminance" maskUnits="userSpaceOnUse" x="0" y="0" width="161" height="146">
<path d="M161 0.745116L0 0.745117L1.44049e-06 145.741L161 145.741L161 0.745116Z" fill="white"/>
</mask>
<g mask="url(#mask0_361_7)">
<path d="M83.8542 105.263L83.8542 113.268L77.1458 113.268L77.1458 105.263C73.2885 104.055 70.4375 100.732 70.4375 96.6539C70.4375 91.6697 74.9656 87.5917 80.5 87.5917C86.0344 87.5917 90.5625 91.6697 90.5625 96.6539C90.5625 100.581 87.7114 103.904 83.8542 105.263ZM55.3437 49.8323C55.3437 37.2962 66.5802 27.1767 80.5 27.1767C94.4198 27.1767 105.656 37.2962 105.656 49.8323L105.656 66.5974L80.5 64.9361L55.3437 66.5974L55.3437 49.8323ZM115.719 67.2016L115.719 49.8323C115.719 32.312 99.9542 18.1145 80.5 18.1145C61.0458 18.1145 45.2812 32.312 45.2812 49.8323L45.2812 67.2016L33.5417 67.9568L33.5417 125.351L80.5 128.372L127.458 125.351L127.458 67.9568L115.719 67.2016Z" fill="#7DE1E1"/>
</g>
</g>
<mask id="mask1_361_7" style="mask-type:luminance" maskUnits="userSpaceOnUse" x="3" y="2" width="155" height="141">
<path d="M158 2.74512L3 2.74512L3 142.337L158 142.337L158 2.74512Z" fill="white"/>
</mask>
<g mask="url(#mask1_361_7)">
<path d="M83.7292 103.368L83.7292 111.074L77.2708 111.074L77.2708 103.368C73.5573 102.205 70.8125 99.0055 70.8125 95.0795C70.8125 90.281 75.1719 86.355 80.5 86.355C85.8281 86.355 90.1875 90.281 90.1875 95.0795C90.1875 98.8601 87.4427 102.059 83.7292 103.368ZM56.2812 50.0028C56.2812 37.9339 67.0989 28.1916 80.5 28.1916C93.901 28.1916 104.719 37.9339 104.719 50.0028L104.719 66.1432L80.5 64.5437L56.2812 66.1432L56.2812 50.0028ZM114.406 66.7248L114.406 50.0028C114.406 33.1354 99.2292 19.467 80.5 19.467C61.7708 19.467 46.5937 33.1354 46.5937 50.0028L46.5937 66.7248L35.2917 67.4519L35.2917 122.707L80.5 125.615L125.708 122.707L125.708 67.4519L114.406 66.7248Z" fill="#7DE1E1"/>
</g>
<defs>
<filter id="filter0_f_361_7" x="-10" y="-9.25488" width="181" height="164.996" filterUnits="userSpaceOnUse" color-interpolation-filters="sRGB">
<feFlood flood-opacity="0" result="BackgroundImageFix"/>
<feBlend mode="normal" in="SourceGraphic" in2="BackgroundImageFix" result="shape"/>
<feGaussianBlur stdDeviation="5" result="effect1_foregroundBlur_361_7"/>
</filter>
</defs>
</svg>
